<?xml version="1.0" encoding="UTF-8"?>
<svg xmlns="http://www.w3.org/2000/svg" xmlns:xlink="http://www.w3.org/1999/xlink" width="242.269" height="101.156" viewBox="0 0 242.269 101.156">
<defs>
<g>
<g id="glyph-0-0">
<path d="M 7.5 -6.859375 C 7.5 -6.890625 7.484375 -6.96875 7.390625 -6.96875 C 7.359375 -6.96875 7.359375 -6.953125 7.25 -6.84375 L 6.5625 -6.078125 C 6.46875 -6.21875 6.015625 -6.96875 4.921875 -6.96875 C 2.71875 -6.96875 0.5 -4.78125 0.5 -2.484375 C 0.5 -0.859375 1.65625 0.21875 3.171875 0.21875 C 4.03125 0.21875 4.78125 -0.171875 5.296875 -0.625 C 6.21875 -1.4375 6.390625 -2.34375 6.390625 -2.375 C 6.390625 -2.46875 6.296875 -2.46875 6.265625 -2.46875 C 6.21875 -2.46875 6.15625 -2.453125 6.140625 -2.375 C 6.046875 -2.078125 5.828125 -1.375 5.140625 -0.8125 C 4.46875 -0.25 3.84375 -0.09375 3.328125 -0.09375 C 2.4375 -0.09375 1.390625 -0.609375 1.390625 -2.140625 C 1.390625 -2.703125 1.59375 -4.3125 2.59375 -5.453125 C 3.1875 -6.15625 4.125 -6.65625 5 -6.65625 C 6 -6.65625 6.59375 -5.890625 6.59375 -4.75 C 6.59375 -4.359375 6.5625 -4.34375 6.5625 -4.25 C 6.5625 -4.140625 6.671875 -4.140625 6.703125 -4.140625 C 6.828125 -4.140625 6.828125 -4.171875 6.890625 -4.34375 Z M 7.5 -6.859375 "/>
</g>
<g id="glyph-0-1">
<path d="M 1.671875 1.671875 C 1.640625 1.8125 1.625 1.828125 1.625 1.875 C 1.625 2.09375 1.8125 2.15625 1.921875 2.15625 C 1.96875 2.15625 2.1875 2.125 2.28125 1.890625 C 2.3125 1.8125 2.359375 1.484375 2.625 0.09375 C 2.71875 0.09375 2.78125 0.109375 2.953125 0.109375 C 4.59375 0.109375 6.109375 -1.4375 6.109375 -3 C 6.109375 -3.765625 5.734375 -4.359375 4.984375 -4.359375 C 3.5625 -4.359375 2.96875 -2.453125 2.375 -0.515625 C 1.296875 -0.71875 0.75 -1.28125 0.75 -1.984375 C 0.75 -2.265625 0.984375 -3.34375 1.5625 -4.03125 C 1.65625 -4.125 1.65625 -4.140625 1.65625 -4.15625 C 1.65625 -4.203125 1.625 -4.25 1.53125 -4.25 C 1.25 -4.25 0.5 -2.828125 0.5 -1.875 C 0.5 -0.953125 1.140625 -0.234375 2.203125 0.015625 Z M 3.046875 -0.46875 C 2.96875 -0.46875 2.9375 -0.46875 2.859375 -0.46875 C 2.75 -0.46875 2.734375 -0.484375 2.734375 -0.515625 C 2.734375 -0.53125 2.90625 -1.4375 2.9375 -1.578125 C 3.234375 -2.84375 4.015625 -3.796875 4.890625 -3.796875 C 5.5625 -3.796875 5.84375 -3.265625 5.84375 -2.78125 C 5.84375 -1.671875 4.5625 -0.46875 3.046875 -0.46875 Z M 3.046875 -0.46875 "/>
</g>
<g id="glyph-0-2">
<path d="M 3.90625 -3.75 C 3.75 -3.75 3.609375 -3.75 3.46875 -3.609375 C 3.3125 -3.46875 3.296875 -3.296875 3.296875 -3.234375 C 3.296875 -2.984375 3.46875 -2.890625 3.65625 -2.890625 C 3.953125 -2.890625 4.21875 -3.125 4.21875 -3.515625 C 4.21875 -4 3.75 -4.359375 3.046875 -4.359375 C 1.71875 -4.359375 0.40625 -2.953125 0.40625 -1.5625 C 0.40625 -0.671875 0.984375 0.109375 2 0.109375 C 3.421875 0.109375 4.25 -0.9375 4.25 -1.0625 C 4.25 -1.109375 4.1875 -1.1875 4.125 -1.1875 C 4.078125 -1.1875 4.0625 -1.171875 4 -1.09375 C 3.21875 -0.109375 2.140625 -0.109375 2.03125 -0.109375 C 1.40625 -0.109375 1.140625 -0.59375 1.140625 -1.1875 C 1.140625 -1.59375 1.328125 -2.546875 1.671875 -3.15625 C 1.96875 -3.71875 2.515625 -4.140625 3.0625 -4.140625 C 3.390625 -4.140625 3.765625 -4.015625 3.90625 -3.75 Z M 3.90625 -3.75 "/>
</g>
<g id="glyph-1-0">
<path d="M 2.578125 -5.546875 C 2.578125 -5.75 2.4375 -5.875 2.234375 -5.875 C 2 -5.875 1.765625 -5.640625 1.765625 -5.40625 C 1.765625 -5.234375 1.890625 -5.078125 2.09375 -5.078125 C 2.34375 -5.078125 2.578125 -5.296875 2.578125 -5.546875 Z M 2.703125 -1.265625 C 2.703125 -1.3125 2.671875 -1.375 2.59375 -1.375 C 2.484375 -1.375 2.484375 -1.328125 2.4375 -1.21875 C 2.234375 -0.484375 1.859375 -0.125 1.53125 -0.125 C 1.390625 -0.125 1.3125 -0.203125 1.3125 -0.421875 C 1.3125 -0.625 1.390625 -0.828125 1.453125 -1 C 1.625 -1.421875 1.625 -1.4375 1.734375 -1.71875 C 1.875 -2.09375 2.078125 -2.609375 2.15625 -2.859375 C 2.21875 -3.015625 2.21875 -3.109375 2.21875 -3.1875 C 2.21875 -3.6875 1.828125 -3.921875 1.46875 -3.921875 C 0.609375 -3.921875 0.265625 -2.65625 0.265625 -2.5625 C 0.265625 -2.484375 0.3125 -2.453125 0.375 -2.453125 C 0.484375 -2.453125 0.484375 -2.5 0.53125 -2.625 C 0.71875 -3.25 1.046875 -3.703125 1.4375 -3.703125 C 1.53125 -3.703125 1.65625 -3.6875 1.65625 -3.421875 C 1.65625 -3.203125 1.5625 -2.96875 1.484375 -2.765625 L 0.859375 -1.125 C 0.796875 -0.953125 0.734375 -0.8125 0.734375 -0.65625 C 0.734375 -0.234375 1.046875 0.09375 1.5 0.09375 C 2.359375 0.09375 2.703125 -1.1875 2.703125 -1.265625 Z M 2.703125 -1.265625 "/>
</g>
<g id="glyph-1-1">
<path d="M 3.59375 -5.546875 C 3.59375 -5.71875 3.46875 -5.875 3.25 -5.875 C 3.015625 -5.875 2.78125 -5.671875 2.78125 -5.40625 C 2.78125 -5.1875 2.9375 -5.078125 3.109375 -5.078125 C 3.375 -5.078125 3.59375 -5.328125 3.59375 -5.546875 Z M 1.78125 0.40625 C 1.59375 1.171875 1.125 1.59375 0.671875 1.59375 C 0.484375 1.59375 0.46875 1.578125 0.359375 1.546875 C 0.53125 1.484375 0.71875 1.296875 0.71875 1.078125 C 0.71875 0.875 0.5625 0.75 0.375 0.75 C 0.125 0.75 -0.109375 0.953125 -0.109375 1.265625 C -0.109375 1.640625 0.28125 1.828125 0.6875 1.828125 C 1.328125 1.828125 2.171875 1.34375 2.40625 0.46875 L 3.234375 -2.8125 C 3.265625 -2.953125 3.265625 -3.09375 3.265625 -3.109375 C 3.265625 -3.59375 2.890625 -3.921875 2.40625 -3.921875 C 1.46875 -3.921875 0.953125 -2.65625 0.953125 -2.5625 C 0.953125 -2.484375 1.015625 -2.453125 1.078125 -2.453125 C 1.171875 -2.453125 1.171875 -2.484375 1.25 -2.65625 C 1.5 -3.21875 1.921875 -3.703125 2.375 -3.703125 C 2.65625 -3.703125 2.65625 -3.453125 2.65625 -3.296875 C 2.65625 -3.296875 2.65625 -3.125 2.625 -3.015625 Z M 1.78125 0.40625 "/>
</g>
<g id="glyph-2-0">
<path d="M 1.953125 -1.9375 C 1.953125 -2.59375 2.203125 -3.625 3.0625 -3.640625 C 2.953125 -3.546875 2.921875 -3.390625 2.921875 -3.25 C 2.921875 -2.859375 3.234375 -2.6875 3.46875 -2.6875 C 3.765625 -2.6875 4.046875 -2.875 4.046875 -3.25 C 4.046875 -3.703125 3.578125 -4 3.0625 -4 C 2.4375 -4 2.046875 -3.546875 1.859375 -3.03125 L 1.84375 -3.03125 L 1.84375 -4 L 0.359375 -3.921875 L 0.359375 -3.5 C 0.890625 -3.5 0.96875 -3.5 0.96875 -3.140625 L 0.96875 -0.4375 L 0.359375 -0.4375 L 0.359375 0 C 1.015625 -0.03125 1.078125 -0.03125 1.5 -0.03125 C 1.71875 -0.03125 2.234375 -0.03125 2.71875 0 L 2.71875 -0.4375 L 1.953125 -0.4375 Z M 1.953125 -1.9375 "/>
</g>
<g id="glyph-3-0">
<path d="M 2.125 -3.765625 C 2.125 -3.9375 2.109375 -3.9375 1.921875 -3.9375 C 1.53125 -3.5625 0.9375 -3.5625 0.71875 -3.5625 L 0.71875 -3.328125 C 0.875 -3.328125 1.265625 -3.328125 1.609375 -3.5 L 1.609375 -0.5 C 1.609375 -0.3125 1.609375 -0.234375 1 -0.234375 L 0.75 -0.234375 L 0.75 0 C 1.078125 -0.03125 1.546875 -0.03125 1.875 -0.03125 C 2.203125 -0.03125 2.671875 -0.03125 2.984375 0 L 2.984375 -0.234375 L 2.734375 -0.234375 C 2.125 -0.234375 2.125 -0.3125 2.125 -0.5 Z M 2.125 -3.765625 "/>
</g>
<g id="glyph-3-1">
<path d="M 3.1875 -1.109375 L 2.96875 -1.109375 C 2.953125 -1.03125 2.890625 -0.640625 2.8125 -0.5625 C 2.765625 -0.53125 2.28125 -0.53125 2.203125 -0.53125 L 1.09375 -0.53125 L 1.859375 -1.15625 C 2.0625 -1.3125 2.578125 -1.6875 2.765625 -1.859375 C 2.9375 -2.046875 3.1875 -2.34375 3.1875 -2.765625 C 3.1875 -3.5 2.515625 -3.9375 1.71875 -3.9375 C 0.953125 -3.9375 0.421875 -3.4375 0.421875 -2.875 C 0.421875 -2.578125 0.6875 -2.546875 0.75 -2.546875 C 0.890625 -2.546875 1.0625 -2.640625 1.0625 -2.859375 C 1.0625 -2.984375 0.984375 -3.1875 0.734375 -3.1875 C 0.859375 -3.484375 1.21875 -3.703125 1.640625 -3.703125 C 2.25 -3.703125 2.59375 -3.25 2.59375 -2.765625 C 2.59375 -2.34375 2.3125 -1.90625 1.890625 -1.53125 L 0.484375 -0.25 C 0.4375 -0.1875 0.421875 -0.1875 0.421875 0 L 3 0 Z M 3.1875 -1.109375 "/>
</g>
<g id="glyph-4-0">
<path d="M 7.125 -4.46875 C 7.125 -4.671875 7.0625 -4.765625 6.984375 -4.765625 C 6.953125 -4.765625 6.859375 -4.71875 6.859375 -4.5 C 6.8125 -3.8125 6.125 -3.40625 5.484375 -3.40625 C 4.90625 -3.40625 4.421875 -3.71875 3.90625 -4.0625 C 3.375 -4.421875 2.828125 -4.765625 2.1875 -4.765625 C 1.28125 -4.765625 0.546875 -4.0625 0.546875 -3.15625 C 0.546875 -2.9375 0.625 -2.859375 0.6875 -2.859375 C 0.78125 -2.859375 0.8125 -3.046875 0.8125 -3.09375 C 0.875 -3.921875 1.671875 -4.21875 2.1875 -4.21875 C 2.765625 -4.21875 3.265625 -3.90625 3.765625 -3.5625 C 4.3125 -3.203125 4.84375 -2.859375 5.484375 -2.859375 C 6.40625 -2.859375 7.125 -3.5625 7.125 -4.46875 Z M 7.125 -2.15625 C 7.125 -2.4375 7.015625 -2.453125 6.984375 -2.453125 C 6.953125 -2.453125 6.859375 -2.40625 6.859375 -2.1875 C 6.8125 -1.515625 6.125 -1.109375 5.484375 -1.109375 C 4.90625 -1.109375 4.421875 -1.40625 3.90625 -1.75 C 3.375 -2.109375 2.828125 -2.46875 2.1875 -2.46875 C 1.28125 -2.46875 0.546875 -1.765625 0.546875 -0.859375 C 0.546875 -0.640625 0.625 -0.5625 0.6875 -0.5625 C 0.78125 -0.5625 0.8125 -0.75 0.8125 -0.796875 C 0.875 -1.625 1.671875 -1.921875 2.1875 -1.921875 C 2.765625 -1.921875 3.265625 -1.609375 3.765625 -1.265625 C 4.3125 -0.90625 4.84375 -0.546875 5.484375 -0.546875 C 6.421875 -0.546875 7.125 -1.28125 7.125 -2.15625 Z M 7.125 -2.15625 "/>
</g>
</g>
<clipPath id="clip-0">
<path clip-rule="nonzero" d="M 0.640625 0 L 93 0 L 93 39 L 0.640625 39 Z M 0.640625 0 "/>
</clipPath>
<clipPath id="clip-1">
<path clip-rule="nonzero" d="M 0.640625 35 L 41 35 L 41 81 L 0.640625 81 Z M 0.640625 35 "/>
</clipPath>
<clipPath id="clip-2">
<path clip-rule="nonzero" d="M 202 0 L 240.902344 0 L 240.902344 39 L 202 39 Z M 202 0 "/>
</clipPath>
<clipPath id="clip-3">
<path clip-rule="nonzero" d="M 202 35 L 240.902344 35 L 240.902344 81 L 202 81 Z M 202 35 "/>
</clipPath>
</defs>
<path fill="none" stroke-width="0.79701" stroke-linecap="butt" stroke-linejoin="miter" stroke="rgb(19.999695%, 19.999695%, 19.999695%)" stroke-opacity="1" stroke-miterlimit="10" d="M 38.26668 21.258143 L 38.26668 -21.261656 " transform="matrix(0.991725, 0, 0, -0.991725, -20.313323, 36.675992)"/>
<path fill="none" stroke-width="0.79701" stroke-linecap="butt" stroke-linejoin="miter" stroke="rgb(19.999695%, 19.999695%, 19.999695%)" stroke-opacity="1" stroke-miterlimit="10" d="M 89.294378 21.258143 L 89.294378 -21.261656 " transform="matrix(0.991725, 0, 0, -0.991725, -20.313323, 36.675992)"/>
<path fill="none" stroke-width="0.79701" stroke-linecap="butt" stroke-linejoin="miter" stroke="rgb(0%, 50.979614%, 66.273499%)" stroke-opacity="1" stroke-miterlimit="10" d="M 38.26668 -21.261656 L 38.26668 -22.392104 C 38.26668 -23.242894 39.826461 -23.668289 39.826461 -24.519079 C 39.826461 -25.137477 39.066265 -25.665282 38.26668 -26.220659 C 37.471034 -26.776035 36.710837 -27.307779 36.710837 -27.922238 C 36.710837 -28.536698 37.471034 -29.068441 38.26668 -29.623818 C 39.066265 -30.175256 39.826461 -30.707 39.826461 -31.321459 C 39.826461 -31.939857 39.066265 -32.467662 38.26668 -33.023039 C 37.471034 -33.578415 36.710837 -34.110159 36.710837 -34.724618 C 36.710837 -35.339078 37.471034 -35.870821 38.26668 -36.426198 C 39.066265 -36.981575 39.826461 -37.50938 39.826461 -38.127778 C 39.826461 -38.742237 39.066265 -39.273981 38.26668 -39.825419 C 37.471034 -40.380795 36.710837 -40.912539 36.710837 -41.526998 C 36.710837 -42.145397 37.471034 -42.673201 38.26668 -43.228578 C 39.066265 -43.783955 39.826461 -44.315699 39.826461 -44.930158 C 39.826461 -45.780948 38.26668 -46.206343 38.26668 -47.057133 L 38.26668 -51.023547 " transform="matrix(0.991725, 0, 0, -0.991725, -20.313323, 36.675992)"/>
<path fill="none" stroke-width="0.79701" stroke-linecap="butt" stroke-linejoin="miter" stroke="rgb(0%, 50.979614%, 66.273499%)" stroke-opacity="1" stroke-miterlimit="10" d="M 89.294378 -21.261656 L 89.294378 -22.392104 C 89.294378 -23.242894 90.850221 -23.668289 90.850221 -24.519079 C 90.850221 -25.137477 90.090024 -25.665282 89.294378 -26.220659 C 88.494793 -26.776035 87.734596 -27.307779 87.734596 -27.922238 C 87.734596 -28.536698 88.494793 -29.068441 89.294378 -29.623818 C 90.090024 -30.175256 90.850221 -30.707 90.850221 -31.321459 C 90.850221 -31.939857 90.090024 -32.467662 89.294378 -33.023039 C 88.494793 -33.578415 87.734596 -34.110159 87.734596 -34.724618 C 87.734596 -35.339078 88.494793 -35.870821 89.294378 -36.426198 C 90.090024 -36.981575 90.850221 -37.50938 90.850221 -38.127778 C 90.850221 -38.742237 90.090024 -39.273981 89.294378 -39.825419 C 88.494793 -40.380795 87.734596 -40.912539 87.734596 -41.526998 C 87.734596 -42.145397 88.494793 -42.673201 89.294378 -43.228578 C 90.090024 -43.783955 90.850221 -44.315699 90.850221 -44.930158 C 90.850221 -45.780948 89.294378 -46.206343 89.294378 -47.057133 L 89.294378 -51.023547 " transform="matrix(0.991725, 0, 0, -0.991725, -20.313323, 36.675992)"/>
<path fill="none" stroke-width="0.79701" stroke-linecap="butt" stroke-linejoin="miter" stroke="rgb(19.999695%, 19.999695%, 19.999695%)" stroke-opacity="1" stroke-miterlimit="10" d="M 196.655394 21.258143 L 196.655394 -21.261656 " transform="matrix(0.991725, 0, 0, -0.991725, -20.313323, 36.675992)"/>
<path fill="none" stroke-width="0.79701" stroke-linecap="butt" stroke-linejoin="miter" stroke="rgb(19.999695%, 19.999695%, 19.999695%)" stroke-opacity="1" stroke-miterlimit="10" d="M 247.679153 21.258143 L 247.679153 -21.261656 " transform="matrix(0.991725, 0, 0, -0.991725, -20.313323, 36.675992)"/>
<path fill="none" stroke-width="0.79701" stroke-linecap="butt" stroke-linejoin="miter" stroke="rgb(0%, 50.979614%, 66.273499%)" stroke-opacity="1" stroke-miterlimit="10" d="M 196.655394 -21.261656 L 196.655394 -22.392104 C 196.655394 -23.242894 198.211237 -23.668289 198.211237 -24.519079 C 198.211237 -25.137477 197.45104 -25.665282 196.655394 -26.220659 C 195.855809 -26.776035 195.095613 -27.307779 195.095613 -27.922238 C 195.095613 -28.536698 195.855809 -29.068441 196.655394 -29.623818 C 197.45104 -30.175256 198.211237 -30.707 198.211237 -31.321459 C 198.211237 -31.939857 197.45104 -32.467662 196.655394 -33.023039 C 195.855809 -33.578415 195.095613 -34.110159 195.095613 -34.724618 C 195.095613 -35.339078 195.855809 -35.870821 196.655394 -36.426198 C 197.45104 -36.981575 198.211237 -37.50938 198.211237 -38.127778 C 198.211237 -38.742237 197.45104 -39.273981 196.655394 -39.825419 C 195.855809 -40.380795 195.095613 -40.912539 195.095613 -41.526998 C 195.095613 -42.145397 195.855809 -42.673201 196.655394 -43.228578 C 197.45104 -43.783955 198.211237 -44.315699 198.211237 -44.930158 C 198.211237 -45.780948 196.655394 -46.206343 196.655394 -47.057133 L 196.655394 -51.023547 " transform="matrix(0.991725, 0, 0, -0.991725, -20.313323, 36.675992)"/>
<path fill="none" stroke-width="0.79701" stroke-linecap="butt" stroke-linejoin="miter" stroke="rgb(0%, 50.979614%, 66.273499%)" stroke-opacity="1" stroke-miterlimit="10" d="M 247.679153 -21.261656 L 247.679153 -22.392104 C 247.679153 -23.242894 249.238934 -23.668289 249.238934 -24.519079 C 249.238934 -25.137477 248.474799 -25.665282 247.679153 -26.220659 C 246.879568 -26.776035 246.119372 -27.307779 246.119372 -27.922238 C 246.119372 -28.536698 246.879568 -29.068441 247.679153 -29.623818 C 248.474799 -30.175256 249.238934 -30.707 249.238934 -31.321459 C 249.238934 -31.939857 248.474799 -32.467662 247.679153 -33.023039 C 246.879568 -33.578415 246.119372 -34.110159 246.119372 -34.724618 C 246.119372 -35.339078 246.879568 -35.870821 247.679153 -36.426198 C 248.474799 -36.981575 249.238934 -37.50938 249.238934 -38.127778 C 249.238934 -38.742237 248.474799 -39.273981 247.679153 -39.825419 C 246.879568 -40.380795 246.119372 -40.912539 246.119372 -41.526998 C 246.119372 -42.145397 246.879568 -42.673201 247.679153 -43.228578 C 248.474799 -43.783955 249.238934 -44.315699 249.238934 -44.930158 C 249.238934 -45.780948 247.679153 -46.206343 247.679153 -47.057133 L 247.679153 -51.023547 " transform="matrix(0.991725, 0, 0, -0.991725, -20.313323, 36.675992)"/>
<path fill-rule="nonzero" fill="rgb(50.193787%, 61.959839%, 67.059326%)" fill-opacity="1" d="M 69.644531 4.347656 L 16.234375 4.347656 C 10.023438 4.347656 4.988281 9.382812 4.988281 15.59375 C 4.988281 21.800781 10.023438 26.835938 16.234375 26.835938 L 69.644531 26.835938 C 75.855469 26.835938 80.890625 21.800781 80.890625 15.59375 C 80.890625 9.382812 75.855469 4.347656 69.644531 4.347656 Z M 69.644531 4.347656 "/>
<g clip-path="url(#clip-0)">
<path fill="none" stroke-width="0.79701" stroke-linecap="butt" stroke-linejoin="miter" stroke="rgb(19.999695%, 19.999695%, 19.999695%)" stroke-opacity="1" stroke-miterlimit="10" d="M 90.708422 32.598069 L 36.852636 32.598069 C 30.589877 32.598069 25.51271 27.520902 25.51271 21.258143 C 25.51271 14.999323 30.589877 9.922156 36.852636 9.922156 L 90.708422 9.922156 C 96.971181 9.922156 102.048348 14.999323 102.048348 21.258143 C 102.048348 27.520902 96.971181 32.598069 90.708422 32.598069 Z M 90.708422 32.598069 " transform="matrix(0.991725, 0, 0, -0.991725, -20.313323, 36.675992)"/>
</g>
<g fill="rgb(0%, 20.391846%, 30.195618%)" fill-opacity="1">
<use xlink:href="#glyph-0-0" x="39.05434" y="18.967742"/>
</g>
<path fill-rule="nonzero" fill="rgb(87.998962%, 94.117737%, 95.951843%)" fill-opacity="1" d="M 28.882812 57.761719 C 28.882812 51.550781 23.847656 46.515625 17.636719 46.515625 C 11.429688 46.515625 6.394531 51.550781 6.394531 57.761719 C 6.394531 63.96875 11.429688 69.003906 17.636719 69.003906 C 23.847656 69.003906 28.882812 63.96875 28.882812 57.761719 Z M 28.882812 57.761719 "/>
<g clip-path="url(#clip-1)">
<path fill="none" stroke-width="0.79701" stroke-linecap="butt" stroke-linejoin="miter" stroke="rgb(0%, 50.979614%, 66.273499%)" stroke-opacity="1" stroke-miterlimit="10" d="M 49.606606 -21.261656 C 49.606606 -14.998898 44.529439 -9.92173 38.26668 -9.92173 C 32.00786 -9.92173 26.930693 -14.998898 26.930693 -21.261656 C 26.930693 -27.520476 32.00786 -32.597644 38.26668 -32.597644 C 44.529439 -32.597644 49.606606 -27.520476 49.606606 -21.261656 Z M 49.606606 -21.261656 " transform="matrix(0.991725, 0, 0, -0.991725, -20.313323, 36.675992)"/>
</g>
<g fill="rgb(0%, 20.391846%, 30.195618%)" fill-opacity="1">
<use xlink:href="#glyph-0-1" x="14.405994" y="58.926345"/>
</g>
<path fill-rule="nonzero" fill="rgb(87.998962%, 94.117737%, 95.951843%)" fill-opacity="1" stroke-width="0.79701" stroke-linecap="butt" stroke-linejoin="miter" stroke="rgb(0%, 50.979614%, 66.273499%)" stroke-opacity="1" stroke-miterlimit="10" d="M 100.630365 -21.261656 C 100.630365 -14.998898 95.553198 -9.92173 89.294378 -9.92173 C 83.031619 -9.92173 77.954452 -14.998898 77.954452 -21.261656 C 77.954452 -27.520476 83.031619 -32.597644 89.294378 -32.597644 C 95.553198 -32.597644 100.630365 -27.520476 100.630365 -21.261656 Z M 100.630365 -21.261656 " transform="matrix(0.991725, 0, 0, -0.991725, -20.313323, 36.675992)"/>
<g fill="rgb(0%, 20.391846%, 30.195618%)" fill-opacity="1">
<use xlink:href="#glyph-0-1" x="65.006804" y="58.926345"/>
</g>
<g fill="rgb(0%, 0%, 0%)" fill-opacity="1">
<use xlink:href="#glyph-1-0" x="12.336263" y="39.609516"/>
</g>
<g fill="rgb(0%, 0%, 0%)" fill-opacity="1">
<use xlink:href="#glyph-1-1" x="70.4127" y="38.744731"/>
</g>
<g fill="rgb(0%, 0%, 0%)" fill-opacity="1">
<use xlink:href="#glyph-2-0" x="13.40931" y="93.40269"/>
</g>
<g fill="rgb(0%, 0%, 0%)" fill-opacity="1">
<use xlink:href="#glyph-3-0" x="17.749101" y="94.390449"/>
</g>
<g fill="rgb(0%, 0%, 0%)" fill-opacity="1">
<use xlink:href="#glyph-2-0" x="64.01012" y="93.40269"/>
</g>
<g fill="rgb(0%, 0%, 0%)" fill-opacity="1">
<use xlink:href="#glyph-3-1" x="68.350903" y="94.390449"/>
</g>
<g fill="rgb(0%, 0%, 0%)" fill-opacity="1">
<use xlink:href="#glyph-4-0" x="117.632717" y="39.062084"/>
</g>
<path fill-rule="nonzero" fill="rgb(50.193787%, 61.959839%, 67.059326%)" fill-opacity="1" stroke-width="0.79701" stroke-linecap="butt" stroke-linejoin="miter" stroke="rgb(19.999695%, 19.999695%, 19.999695%)" stroke-opacity="1" stroke-miterlimit="10" d="M 196.655394 32.598069 C 190.392635 32.598069 185.315468 27.520902 185.315468 21.258143 C 185.315468 14.999323 190.392635 9.922156 196.655394 9.922156 C 202.914214 9.922156 207.991381 14.999323 207.991381 21.258143 C 207.991381 27.520902 202.914214 32.598069 196.655394 32.598069 Z M 196.655394 32.598069 " transform="matrix(0.991725, 0, 0, -0.991725, -20.313323, 36.675992)"/>
<g fill="rgb(0%, 20.391846%, 30.195618%)" fill-opacity="1">
<use xlink:href="#glyph-0-2" x="172.572326" y="17.719159"/>
</g>
<path fill-rule="nonzero" fill="rgb(50.193787%, 61.959839%, 67.059326%)" fill-opacity="1" d="M 225.316406 4.347656 C 219.105469 4.347656 214.070312 9.382812 214.070312 15.59375 C 214.070312 21.800781 219.105469 26.835938 225.316406 26.835938 C 231.527344 26.835938 236.558594 21.800781 236.558594 15.59375 C 236.558594 9.382812 231.527344 4.347656 225.316406 4.347656 Z M 225.316406 4.347656 "/>
<g clip-path="url(#clip-2)">
<path fill="none" stroke-width="0.79701" stroke-linecap="butt" stroke-linejoin="miter" stroke="rgb(19.999695%, 19.999695%, 19.999695%)" stroke-opacity="1" stroke-miterlimit="10" d="M 247.679153 32.598069 C 241.416394 32.598069 236.339227 27.520902 236.339227 21.258143 C 236.339227 14.999323 241.416394 9.922156 247.679153 9.922156 C 253.941912 9.922156 259.01514 14.999323 259.01514 21.258143 C 259.01514 27.520902 253.941912 32.598069 247.679153 32.598069 Z M 247.679153 32.598069 " transform="matrix(0.991725, 0, 0, -0.991725, -20.313323, 36.675992)"/>
</g>
<g fill="rgb(0%, 20.391846%, 30.195618%)" fill-opacity="1">
<use xlink:href="#glyph-0-2" x="223.174127" y="17.719159"/>
</g>
<path fill-rule="nonzero" fill="rgb(87.998962%, 94.117737%, 95.951843%)" fill-opacity="1" stroke-width="0.79701" stroke-linecap="butt" stroke-linejoin="miter" stroke="rgb(0%, 50.979614%, 66.273499%)" stroke-opacity="1" stroke-miterlimit="10" d="M 207.991381 -21.261656 C 207.991381 -14.998898 202.914214 -9.92173 196.655394 -9.92173 C 190.392635 -9.92173 185.315468 -14.998898 185.315468 -21.261656 C 185.315468 -27.520476 190.392635 -32.597644 196.655394 -32.597644 C 202.914214 -32.597644 207.991381 -27.520476 207.991381 -21.261656 Z M 207.991381 -21.261656 " transform="matrix(0.991725, 0, 0, -0.991725, -20.313323, 36.675992)"/>
<g fill="rgb(0%, 20.391846%, 30.195618%)" fill-opacity="1">
<use xlink:href="#glyph-0-1" x="171.478453" y="58.926345"/>
</g>
<path fill-rule="nonzero" fill="rgb(87.998962%, 94.117737%, 95.951843%)" fill-opacity="1" d="M 236.558594 57.761719 C 236.558594 51.550781 231.527344 46.515625 225.316406 46.515625 C 219.105469 46.515625 214.070312 51.550781 214.070312 57.761719 C 214.070312 63.96875 219.105469 69.003906 225.316406 69.003906 C 231.527344 69.003906 236.558594 63.96875 236.558594 57.761719 Z M 236.558594 57.761719 "/>
<g clip-path="url(#clip-3)">
<path fill="none" stroke-width="0.79701" stroke-linecap="butt" stroke-linejoin="miter" stroke="rgb(0%, 50.979614%, 66.273499%)" stroke-opacity="1" stroke-miterlimit="10" d="M 259.01514 -21.261656 C 259.01514 -14.998898 253.941912 -9.92173 247.679153 -9.92173 C 241.416394 -9.92173 236.339227 -14.998898 236.339227 -21.261656 C 236.339227 -27.520476 241.416394 -32.597644 247.679153 -32.597644 C 253.941912 -32.597644 259.01514 -27.520476 259.01514 -21.261656 Z M 259.01514 -21.261656 " transform="matrix(0.991725, 0, 0, -0.991725, -20.313323, 36.675992)"/>
</g>
<g fill="rgb(0%, 20.391846%, 30.195618%)" fill-opacity="1">
<use xlink:href="#glyph-0-1" x="222.080254" y="58.926345"/>
</g>
<g fill="rgb(0%, 0%, 0%)" fill-opacity="1">
<use xlink:href="#glyph-1-0" x="169.409713" y="39.609516"/>
</g>
<g fill="rgb(0%, 0%, 0%)" fill-opacity="1">
<use xlink:href="#glyph-1-1" x="227.485158" y="38.744731"/>
</g>
<g fill="rgb(0%, 0%, 0%)" fill-opacity="1">
<use xlink:href="#glyph-2-0" x="170.481769" y="93.40269"/>
</g>
<g fill="rgb(0%, 0%, 0%)" fill-opacity="1">
<use xlink:href="#glyph-3-0" x="174.822551" y="94.390449"/>
</g>
<g fill="rgb(0%, 0%, 0%)" fill-opacity="1">
<use xlink:href="#glyph-2-0" x="221.08357" y="93.40269"/>
</g>
<g fill="rgb(0%, 0%, 0%)" fill-opacity="1">
<use xlink:href="#glyph-3-1" x="225.423361" y="94.390449"/>
</g>
</svg>
