<?xml version="1.0" encoding="UTF-8"?>
<svg xmlns="http://www.w3.org/2000/svg" xmlns:xlink="http://www.w3.org/1999/xlink" width="172.926" height="187.1" viewBox="0 0 172.926 187.1">
<defs>
<g>
<g id="glyph-0-0">
<path d="M 5.5 -6.75 L 0.328125 -6.75 L 0.328125 -6.4375 L 0.5625 -6.4375 C 1.328125 -6.4375 1.34375 -6.328125 1.34375 -5.96875 L 1.34375 -0.78125 C 1.34375 -0.421875 1.328125 -0.3125 0.5625 -0.3125 L 0.328125 -0.3125 L 0.328125 0 C 0.671875 -0.03125 1.453125 -0.03125 1.828125 -0.03125 C 2.25 -0.03125 3.140625 -0.03125 3.5 0 L 3.5 -0.3125 L 3.171875 -0.3125 C 2.234375 -0.3125 2.234375 -0.4375 2.234375 -0.78125 L 2.234375 -6.046875 C 2.234375 -6.375 2.25 -6.4375 2.71875 -6.4375 L 3.734375 -6.4375 C 5.15625 -6.4375 5.375 -5.859375 5.53125 -4.515625 L 5.78125 -4.515625 Z M 5.5 -6.75 "/>
</g>
<g id="glyph-1-0">
<path d="M 2.796875 -1.984375 C 3.15625 -1.1875 3.546875 -0.1875 3.625 -0.09375 C 3.75 0.0625 3.875 0.0625 3.984375 0.0625 L 4.125 0.0625 C 4.265625 0.0625 4.328125 0.0625 4.328125 -0.015625 C 4.328125 -0.046875 4.3125 -0.0625 4.296875 -0.078125 C 4.21875 -0.15625 4.140625 -0.3125 4.109375 -0.375 L 2.421875 -4.375 C 2.375 -4.5 2.234375 -4.8125 1.5 -4.8125 C 1.421875 -4.8125 1.3125 -4.8125 1.3125 -4.71875 C 1.3125 -4.640625 1.390625 -4.625 1.421875 -4.625 C 1.5625 -4.59375 1.703125 -4.578125 1.875 -4.1875 L 2.703125 -2.234375 L 0.65625 -0.390625 C 0.5625 -0.328125 0.515625 -0.265625 0.515625 -0.15625 C 0.515625 0.015625 0.65625 0.078125 0.75 0.078125 C 0.875 0.078125 0.96875 0 0.984375 -0.03125 Z M 2.796875 -1.984375 "/>
</g>
</g>
</defs>
<path fill="none" stroke-width="0.79701" stroke-linecap="butt" stroke-linejoin="miter" stroke="rgb(19.999695%, 19.999695%, 19.999695%)" stroke-opacity="1" stroke-miterlimit="10" d="M 84.913602 72.161154 L 84.913602 48.065333 " transform="matrix(0.995213, 0, 0, -0.995213, 1.91868, 86.050077)"/>
<path fill="none" stroke-width="0.79701" stroke-linecap="butt" stroke-linejoin="miter" stroke="rgb(19.999695%, 19.999695%, 19.999695%)" stroke-opacity="1" stroke-miterlimit="10" d="M 48.834634 36.07826 L 48.834634 11.986364 " transform="matrix(0.995213, 0, 0, -0.995213, 1.91868, 86.050077)"/>
<path fill="none" stroke-width="0.79701" stroke-linecap="butt" stroke-linejoin="miter" stroke="rgb(19.999695%, 19.999695%, 19.999695%)" stroke-opacity="1" stroke-miterlimit="10" d="M 12.755665 -0.000708044 L 12.755665 -24.096529 " transform="matrix(0.995213, 0, 0, -0.995213, 1.91868, 86.050077)"/>
<path fill="none" stroke-width="0.79701" stroke-linecap="butt" stroke-linejoin="miter" stroke="rgb(19.999695%, 19.999695%, 19.999695%)" stroke-opacity="1" stroke-miterlimit="10" d="M 120.996496 36.07826 L 120.996496 11.986364 " transform="matrix(0.995213, 0, 0, -0.995213, 1.91868, 86.050077)"/>
<path fill="none" stroke-width="0.79701" stroke-linecap="butt" stroke-linejoin="miter" stroke="rgb(19.999695%, 19.999695%, 19.999695%)" stroke-opacity="1" stroke-miterlimit="10" d="M 84.913602 -0.000708044 L 84.913602 -24.096529 " transform="matrix(0.995213, 0, 0, -0.995213, 1.91868, 86.050077)"/>
<path fill="none" stroke-width="0.79701" stroke-linecap="butt" stroke-linejoin="miter" stroke="rgb(19.999695%, 19.999695%, 19.999695%)" stroke-opacity="1" stroke-miterlimit="10" d="M 48.834634 -36.079677 L 48.834634 -60.175498 " transform="matrix(0.995213, 0, 0, -0.995213, 1.91868, 86.050077)"/>
<path fill="none" stroke-width="0.79701" stroke-linecap="butt" stroke-linejoin="miter" stroke="rgb(19.999695%, 19.999695%, 19.999695%)" stroke-opacity="1" stroke-miterlimit="10" d="M 157.075464 -0.000708044 L 157.075464 -24.096529 " transform="matrix(0.995213, 0, 0, -0.995213, 1.91868, 86.050077)"/>
<path fill="none" stroke-width="0.79701" stroke-linecap="butt" stroke-linejoin="miter" stroke="rgb(19.999695%, 19.999695%, 19.999695%)" stroke-opacity="1" stroke-miterlimit="10" d="M 120.996496 -36.079677 L 120.996496 -60.175498 " transform="matrix(0.995213, 0, 0, -0.995213, 1.91868, 86.050077)"/>
<path fill="none" stroke-width="0.79701" stroke-linecap="butt" stroke-linejoin="miter" stroke="rgb(19.999695%, 19.999695%, 19.999695%)" stroke-opacity="1" stroke-miterlimit="10" d="M 84.913602 -72.158645 L 84.913602 -96.254466 " transform="matrix(0.995213, 0, 0, -0.995213, 1.91868, 86.050077)"/>
<path fill="none" stroke-width="0.79701" stroke-linecap="butt" stroke-linejoin="miter" stroke="rgb(19.999695%, 19.999695%, 19.999695%)" stroke-opacity="1" stroke-miterlimit="10" d="M 84.913602 72.161154 L 120.996496 36.07826 " transform="matrix(0.995213, 0, 0, -0.995213, 1.91868, 86.050077)"/>
<path fill="none" stroke-width="0.79701" stroke-linecap="butt" stroke-linejoin="miter" stroke="rgb(19.999695%, 19.999695%, 19.999695%)" stroke-opacity="1" stroke-miterlimit="10" d="M 84.913602 72.161154 L 48.834634 36.07826 " transform="matrix(0.995213, 0, 0, -0.995213, 1.91868, 86.050077)"/>
<path fill="none" stroke-width="0.79701" stroke-linecap="butt" stroke-linejoin="miter" stroke="rgb(19.999695%, 19.999695%, 19.999695%)" stroke-opacity="1" stroke-miterlimit="10" d="M 48.834634 36.07826 L 84.913602 -0.000708044 " transform="matrix(0.995213, 0, 0, -0.995213, 1.91868, 86.050077)"/>
<path fill="none" stroke-width="0.79701" stroke-linecap="butt" stroke-linejoin="miter" stroke="rgb(19.999695%, 19.999695%, 19.999695%)" stroke-opacity="1" stroke-miterlimit="10" d="M 48.834634 36.07826 L 12.755665 -0.000708044 " transform="matrix(0.995213, 0, 0, -0.995213, 1.91868, 86.050077)"/>
<path fill="none" stroke-width="0.79701" stroke-linecap="butt" stroke-linejoin="miter" stroke="rgb(19.999695%, 19.999695%, 19.999695%)" stroke-opacity="1" stroke-miterlimit="10" d="M 12.755665 -0.000708044 L 48.834634 -36.079677 " transform="matrix(0.995213, 0, 0, -0.995213, 1.91868, 86.050077)"/>
<path fill="none" stroke-width="0.79701" stroke-linecap="butt" stroke-linejoin="miter" stroke="rgb(19.999695%, 19.999695%, 19.999695%)" stroke-opacity="1" stroke-miterlimit="10" d="M 120.996496 36.07826 L 157.075464 -0.000708044 " transform="matrix(0.995213, 0, 0, -0.995213, 1.91868, 86.050077)"/>
<path fill="none" stroke-width="0.79701" stroke-linecap="butt" stroke-linejoin="miter" stroke="rgb(19.999695%, 19.999695%, 19.999695%)" stroke-opacity="1" stroke-miterlimit="10" d="M 120.996496 36.07826 L 84.913602 -0.000708044 " transform="matrix(0.995213, 0, 0, -0.995213, 1.91868, 86.050077)"/>
<path fill="none" stroke-width="0.79701" stroke-linecap="butt" stroke-linejoin="miter" stroke="rgb(19.999695%, 19.999695%, 19.999695%)" stroke-opacity="1" stroke-miterlimit="10" d="M 84.913602 -0.000708044 L 120.996496 -36.079677 " transform="matrix(0.995213, 0, 0, -0.995213, 1.91868, 86.050077)"/>
<path fill="none" stroke-width="0.79701" stroke-linecap="butt" stroke-linejoin="miter" stroke="rgb(19.999695%, 19.999695%, 19.999695%)" stroke-opacity="1" stroke-miterlimit="10" d="M 84.913602 -0.000708044 L 48.834634 -36.079677 " transform="matrix(0.995213, 0, 0, -0.995213, 1.91868, 86.050077)"/>
<path fill="none" stroke-width="0.79701" stroke-linecap="butt" stroke-linejoin="miter" stroke="rgb(19.999695%, 19.999695%, 19.999695%)" stroke-opacity="1" stroke-miterlimit="10" d="M 48.834634 -36.079677 L 84.913602 -72.158645 " transform="matrix(0.995213, 0, 0, -0.995213, 1.91868, 86.050077)"/>
<path fill="none" stroke-width="0.79701" stroke-linecap="butt" stroke-linejoin="miter" stroke="rgb(19.999695%, 19.999695%, 19.999695%)" stroke-opacity="1" stroke-miterlimit="10" d="M 157.075464 -0.000708044 L 120.996496 -36.079677 " transform="matrix(0.995213, 0, 0, -0.995213, 1.91868, 86.050077)"/>
<path fill="none" stroke-width="0.79701" stroke-linecap="butt" stroke-linejoin="miter" stroke="rgb(19.999695%, 19.999695%, 19.999695%)" stroke-opacity="1" stroke-miterlimit="10" d="M 120.996496 -36.079677 L 84.913602 -72.158645 " transform="matrix(0.995213, 0, 0, -0.995213, 1.91868, 86.050077)"/>
<path fill-rule="nonzero" fill="rgb(93.998718%, 93.998718%, 93.998718%)" fill-opacity="1" stroke-width="0.79701" stroke-linecap="butt" stroke-linejoin="miter" stroke="rgb(19.999695%, 19.999695%, 19.999695%)" stroke-opacity="1" stroke-miterlimit="10" d="M 74.995026 62.238653 L 94.836104 62.238653 L 94.836104 82.07973 L 74.995026 82.07973 Z M 74.995026 62.238653 " transform="matrix(0.995213, 0, 0, -0.995213, 1.91868, 86.050077)"/>
<g fill="rgb(0%, 20.391846%, 30.195618%)" fill-opacity="1">
<use xlink:href="#glyph-0-0" x="83.32808" y="17.624223"/>
</g>
<path fill-rule="nonzero" fill="rgb(93.998718%, 93.998718%, 93.998718%)" fill-opacity="1" stroke-width="0.79701" stroke-linecap="butt" stroke-linejoin="miter" stroke="rgb(19.999695%, 19.999695%, 19.999695%)" stroke-opacity="1" stroke-miterlimit="10" d="M 38.916057 26.159684 L 58.757135 26.159684 L 58.757135 46.000762 L 38.916057 46.000762 Z M 38.916057 26.159684 " transform="matrix(0.995213, 0, 0, -0.995213, 1.91868, 86.050077)"/>
<g fill="rgb(0%, 20.391846%, 30.195618%)" fill-opacity="1">
<use xlink:href="#glyph-0-0" x="47.421798" y="53.530504"/>
</g>
<path fill-rule="nonzero" fill="rgb(93.998718%, 93.998718%, 93.998718%)" fill-opacity="1" stroke-width="0.79701" stroke-linecap="butt" stroke-linejoin="miter" stroke="rgb(19.999695%, 19.999695%, 19.999695%)" stroke-opacity="1" stroke-miterlimit="10" d="M 2.833164 -9.923209 L 22.678167 -9.923209 L 22.678167 9.921793 L 2.833164 9.921793 Z M 2.833164 -9.923209 " transform="matrix(0.995213, 0, 0, -0.995213, 1.91868, 86.050077)"/>
<g fill="rgb(0%, 20.391846%, 30.195618%)" fill-opacity="1">
<use xlink:href="#glyph-0-0" x="11.514522" y="89.436786"/>
</g>
<path fill-rule="nonzero" fill="rgb(93.998718%, 93.998718%, 93.998718%)" fill-opacity="1" stroke-width="0.79701" stroke-linecap="butt" stroke-linejoin="miter" stroke="rgb(19.999695%, 19.999695%, 19.999695%)" stroke-opacity="1" stroke-miterlimit="10" d="M 111.073994 26.159684 L 130.915072 26.159684 L 130.915072 46.000762 L 111.073994 46.000762 Z M 111.073994 26.159684 " transform="matrix(0.995213, 0, 0, -0.995213, 1.91868, 86.050077)"/>
<g fill="rgb(0%, 20.391846%, 30.195618%)" fill-opacity="1">
<use xlink:href="#glyph-0-0" x="119.234361" y="53.530504"/>
</g>
<path fill-rule="nonzero" fill="rgb(93.998718%, 93.998718%, 93.998718%)" fill-opacity="1" stroke-width="0.79701" stroke-linecap="butt" stroke-linejoin="miter" stroke="rgb(19.999695%, 19.999695%, 19.999695%)" stroke-opacity="1" stroke-miterlimit="10" d="M 74.995026 -9.923209 L 94.836104 -9.923209 L 94.836104 9.921793 L 74.995026 9.921793 Z M 74.995026 -9.923209 " transform="matrix(0.995213, 0, 0, -0.995213, 1.91868, 86.050077)"/>
<g fill="rgb(0%, 20.391846%, 30.195618%)" fill-opacity="1">
<use xlink:href="#glyph-0-0" x="83.32808" y="89.436786"/>
</g>
<path fill-rule="nonzero" fill="rgb(93.998718%, 93.998718%, 93.998718%)" fill-opacity="1" stroke-width="0.79701" stroke-linecap="butt" stroke-linejoin="miter" stroke="rgb(19.999695%, 19.999695%, 19.999695%)" stroke-opacity="1" stroke-miterlimit="10" d="M 38.916057 -46.002178 L 58.757135 -46.002178 L 58.757135 -26.157175 L 38.916057 -26.157175 Z M 38.916057 -46.002178 " transform="matrix(0.995213, 0, 0, -0.995213, 1.91868, 86.050077)"/>
<g fill="rgb(0%, 20.391846%, 30.195618%)" fill-opacity="1">
<use xlink:href="#glyph-0-0" x="47.421798" y="125.344062"/>
</g>
<path fill-rule="nonzero" fill="rgb(93.998718%, 93.998718%, 93.998718%)" fill-opacity="1" stroke-width="0.79701" stroke-linecap="butt" stroke-linejoin="miter" stroke="rgb(19.999695%, 19.999695%, 19.999695%)" stroke-opacity="1" stroke-miterlimit="10" d="M 147.152963 -9.923209 L 166.99404 -9.923209 L 166.99404 9.921793 L 147.152963 9.921793 Z M 147.152963 -9.923209 " transform="matrix(0.995213, 0, 0, -0.995213, 1.91868, 86.050077)"/>
<g fill="rgb(0%, 20.391846%, 30.195618%)" fill-opacity="1">
<use xlink:href="#glyph-0-0" x="155.140643" y="89.436786"/>
</g>
<path fill-rule="nonzero" fill="rgb(93.998718%, 93.998718%, 93.998718%)" fill-opacity="1" stroke-width="0.79701" stroke-linecap="butt" stroke-linejoin="miter" stroke="rgb(19.999695%, 19.999695%, 19.999695%)" stroke-opacity="1" stroke-miterlimit="10" d="M 111.073994 -46.002178 L 130.915072 -46.002178 L 130.915072 -26.157175 L 111.073994 -26.157175 Z M 111.073994 -46.002178 " transform="matrix(0.995213, 0, 0, -0.995213, 1.91868, 86.050077)"/>
<g fill="rgb(0%, 20.391846%, 30.195618%)" fill-opacity="1">
<use xlink:href="#glyph-0-0" x="119.234361" y="125.344062"/>
</g>
<path fill-rule="nonzero" fill="rgb(93.998718%, 93.998718%, 93.998718%)" fill-opacity="1" stroke-width="0.79701" stroke-linecap="butt" stroke-linejoin="miter" stroke="rgb(19.999695%, 19.999695%, 19.999695%)" stroke-opacity="1" stroke-miterlimit="10" d="M 74.995026 -82.081146 L 94.836104 -82.081146 L 94.836104 -62.236144 L 74.995026 -62.236144 Z M 74.995026 -82.081146 " transform="matrix(0.995213, 0, 0, -0.995213, 1.91868, 86.050077)"/>
<g fill="rgb(0%, 20.391846%, 30.195618%)" fill-opacity="1">
<use xlink:href="#glyph-0-0" x="83.32808" y="161.250344"/>
</g>
<path fill-rule="nonzero" fill="rgb(41.569519%, 74.508667%, 57.255554%)" fill-opacity="1" stroke-width="0.79701" stroke-linecap="butt" stroke-linejoin="miter" stroke="rgb(19.999695%, 19.999695%, 19.999695%)" stroke-opacity="1" stroke-miterlimit="10" d="M 111.458648 54.117745 L 102.957011 62.623307 L 94.45145 54.117745 L 102.957011 45.616108 Z M 111.458648 54.117745 " transform="matrix(0.995213, 0, 0, -0.995213, 1.91868, 86.050077)"/>
<g fill="rgb(0%, 20.391846%, 30.195618%)" fill-opacity="1">
<use xlink:href="#glyph-1-0" x="102.028128" y="34.599567"/>
</g>
<path fill-rule="nonzero" fill="rgb(41.569519%, 74.508667%, 57.255554%)" fill-opacity="1" stroke-width="0.79701" stroke-linecap="butt" stroke-linejoin="miter" stroke="rgb(19.999695%, 19.999695%, 19.999695%)" stroke-opacity="1" stroke-miterlimit="10" d="M 75.37968 54.117745 L 66.874118 62.623307 L 58.372481 54.117745 L 66.874118 45.616108 Z M 75.37968 54.117745 " transform="matrix(0.995213, 0, 0, -0.995213, 1.91868, 86.050077)"/>
<g fill="rgb(0%, 20.391846%, 30.195618%)" fill-opacity="1">
<use xlink:href="#glyph-1-0" x="66.121846" y="34.599567"/>
</g>
<path fill-rule="nonzero" fill="rgb(41.569519%, 74.508667%, 57.255554%)" fill-opacity="1" stroke-width="0.79701" stroke-linecap="butt" stroke-linejoin="miter" stroke="rgb(19.999695%, 19.999695%, 19.999695%)" stroke-opacity="1" stroke-miterlimit="10" d="M 75.37968 18.038776 L 66.874118 26.544338 L 58.372481 18.038776 L 66.874118 9.537139 Z M 75.37968 18.038776 " transform="matrix(0.995213, 0, 0, -0.995213, 1.91868, 86.050077)"/>
<g fill="rgb(0%, 20.391846%, 30.195618%)" fill-opacity="1">
<use xlink:href="#glyph-1-0" x="66.121846" y="70.505848"/>
</g>
<path fill-rule="nonzero" fill="rgb(41.569519%, 74.508667%, 57.255554%)" fill-opacity="1" stroke-width="0.79701" stroke-linecap="butt" stroke-linejoin="miter" stroke="rgb(19.999695%, 19.999695%, 19.999695%)" stroke-opacity="1" stroke-miterlimit="10" d="M 39.300711 18.038776 L 30.79515 26.544338 L 22.293513 18.038776 L 30.79515 9.537139 Z M 39.300711 18.038776 " transform="matrix(0.995213, 0, 0, -0.995213, 1.91868, 86.050077)"/>
<g fill="rgb(0%, 20.391846%, 30.195618%)" fill-opacity="1">
<use xlink:href="#glyph-1-0" x="30.215565" y="70.505848"/>
</g>
<path fill-rule="nonzero" fill="rgb(41.569519%, 74.508667%, 57.255554%)" fill-opacity="1" stroke-width="0.79701" stroke-linecap="butt" stroke-linejoin="miter" stroke="rgb(19.999695%, 19.999695%, 19.999695%)" stroke-opacity="1" stroke-miterlimit="10" d="M 39.300711 -18.040192 L 30.79515 -9.53463 L 22.293513 -18.040192 L 30.79515 -26.545754 Z M 39.300711 -18.040192 " transform="matrix(0.995213, 0, 0, -0.995213, 1.91868, 86.050077)"/>
<g fill="rgb(0%, 20.391846%, 30.195618%)" fill-opacity="1">
<use xlink:href="#glyph-1-0" x="30.215565" y="106.413125"/>
</g>
<path fill-rule="nonzero" fill="rgb(41.569519%, 74.508667%, 57.255554%)" fill-opacity="1" stroke-width="0.79701" stroke-linecap="butt" stroke-linejoin="miter" stroke="rgb(19.999695%, 19.999695%, 19.999695%)" stroke-opacity="1" stroke-miterlimit="10" d="M 147.537617 18.038776 L 139.03598 26.544338 L 130.530418 18.038776 L 139.03598 9.537139 Z M 147.537617 18.038776 " transform="matrix(0.995213, 0, 0, -0.995213, 1.91868, 86.050077)"/>
<g fill="rgb(0%, 20.391846%, 30.195618%)" fill-opacity="1">
<use xlink:href="#glyph-1-0" x="137.934409" y="70.505848"/>
</g>
<path fill-rule="nonzero" fill="rgb(41.569519%, 74.508667%, 57.255554%)" fill-opacity="1" stroke-width="0.79701" stroke-linecap="butt" stroke-linejoin="miter" stroke="rgb(19.999695%, 19.999695%, 19.999695%)" stroke-opacity="1" stroke-miterlimit="10" d="M 111.458648 18.038776 L 102.957011 26.544338 L 94.45145 18.038776 L 102.957011 9.537139 Z M 111.458648 18.038776 " transform="matrix(0.995213, 0, 0, -0.995213, 1.91868, 86.050077)"/>
<g fill="rgb(0%, 20.391846%, 30.195618%)" fill-opacity="1">
<use xlink:href="#glyph-1-0" x="102.028128" y="70.505848"/>
</g>
<path fill-rule="nonzero" fill="rgb(41.569519%, 74.508667%, 57.255554%)" fill-opacity="1" stroke-width="0.79701" stroke-linecap="butt" stroke-linejoin="miter" stroke="rgb(19.999695%, 19.999695%, 19.999695%)" stroke-opacity="1" stroke-miterlimit="10" d="M 111.458648 -18.040192 L 102.957011 -9.53463 L 94.45145 -18.040192 L 102.957011 -26.545754 Z M 111.458648 -18.040192 " transform="matrix(0.995213, 0, 0, -0.995213, 1.91868, 86.050077)"/>
<g fill="rgb(0%, 20.391846%, 30.195618%)" fill-opacity="1">
<use xlink:href="#glyph-1-0" x="102.028128" y="106.413125"/>
</g>
<path fill-rule="nonzero" fill="rgb(41.569519%, 74.508667%, 57.255554%)" fill-opacity="1" stroke-width="0.79701" stroke-linecap="butt" stroke-linejoin="miter" stroke="rgb(19.999695%, 19.999695%, 19.999695%)" stroke-opacity="1" stroke-miterlimit="10" d="M 75.37968 -18.040192 L 66.874118 -9.53463 L 58.372481 -18.040192 L 66.874118 -26.545754 Z M 75.37968 -18.040192 " transform="matrix(0.995213, 0, 0, -0.995213, 1.91868, 86.050077)"/>
<g fill="rgb(0%, 20.391846%, 30.195618%)" fill-opacity="1">
<use xlink:href="#glyph-1-0" x="66.121846" y="106.413125"/>
</g>
<path fill-rule="nonzero" fill="rgb(41.569519%, 74.508667%, 57.255554%)" fill-opacity="1" stroke-width="0.79701" stroke-linecap="butt" stroke-linejoin="miter" stroke="rgb(19.999695%, 19.999695%, 19.999695%)" stroke-opacity="1" stroke-miterlimit="10" d="M 75.37968 -54.119161 L 66.874118 -45.613599 L 58.372481 -54.119161 L 66.874118 -62.624723 Z M 75.37968 -54.119161 " transform="matrix(0.995213, 0, 0, -0.995213, 1.91868, 86.050077)"/>
<g fill="rgb(0%, 20.391846%, 30.195618%)" fill-opacity="1">
<use xlink:href="#glyph-1-0" x="66.121846" y="142.319406"/>
</g>
<path fill-rule="nonzero" fill="rgb(41.569519%, 74.508667%, 57.255554%)" fill-opacity="1" stroke-width="0.79701" stroke-linecap="butt" stroke-linejoin="miter" stroke="rgb(19.999695%, 19.999695%, 19.999695%)" stroke-opacity="1" stroke-miterlimit="10" d="M 147.537617 -18.040192 L 139.03598 -9.53463 L 130.530418 -18.040192 L 139.03598 -26.545754 Z M 147.537617 -18.040192 " transform="matrix(0.995213, 0, 0, -0.995213, 1.91868, 86.050077)"/>
<g fill="rgb(0%, 20.391846%, 30.195618%)" fill-opacity="1">
<use xlink:href="#glyph-1-0" x="137.934409" y="106.413125"/>
</g>
<path fill-rule="nonzero" fill="rgb(41.569519%, 74.508667%, 57.255554%)" fill-opacity="1" stroke-width="0.79701" stroke-linecap="butt" stroke-linejoin="miter" stroke="rgb(19.999695%, 19.999695%, 19.999695%)" stroke-opacity="1" stroke-miterlimit="10" d="M 111.458648 -54.119161 L 102.957011 -45.613599 L 94.45145 -54.119161 L 102.957011 -62.624723 Z M 111.458648 -54.119161 " transform="matrix(0.995213, 0, 0, -0.995213, 1.91868, 86.050077)"/>
<g fill="rgb(0%, 20.391846%, 30.195618%)" fill-opacity="1">
<use xlink:href="#glyph-1-0" x="102.028128" y="142.319406"/>
</g>
</svg>
