<?xml version="1.0" encoding="UTF-8"?>
<svg xmlns="http://www.w3.org/2000/svg" xmlns:xlink="http://www.w3.org/1999/xlink" width="187.449pt" height="101.903pt" viewBox="0 0 187.449 101.903">
<defs>
<g>
<g id="glyph-0-0">
<path d="M 7.546875 -6.90625 C 7.546875 -6.9375 7.53125 -7 7.4375 -7 C 7.40625 -7 7.40625 -7 7.296875 -6.890625 L 6.59375 -6.125 C 6.515625 -6.265625 6.046875 -7 4.953125 -7 C 2.734375 -7 0.5 -4.8125 0.5 -2.5 C 0.5 -0.859375 1.671875 0.21875 3.1875 0.21875 C 4.046875 0.21875 4.8125 -0.171875 5.34375 -0.640625 C 6.265625 -1.453125 6.421875 -2.359375 6.421875 -2.390625 C 6.421875 -2.484375 6.328125 -2.484375 6.3125 -2.484375 C 6.25 -2.484375 6.203125 -2.46875 6.1875 -2.390625 C 6.09375 -2.09375 5.859375 -1.390625 5.171875 -0.8125 C 4.484375 -0.265625 3.859375 -0.09375 3.34375 -0.09375 C 2.453125 -0.09375 1.40625 -0.609375 1.40625 -2.15625 C 1.40625 -2.71875 1.609375 -4.328125 2.609375 -5.5 C 3.203125 -6.203125 4.140625 -6.703125 5.03125 -6.703125 C 6.046875 -6.703125 6.625 -5.9375 6.625 -4.78125 C 6.625 -4.375 6.59375 -4.375 6.59375 -4.265625 C 6.59375 -4.171875 6.703125 -4.171875 6.75 -4.171875 C 6.875 -4.171875 6.875 -4.1875 6.921875 -4.375 Z M 7.546875 -6.90625 "/>
</g>
<g id="glyph-0-1">
<path d="M 1.6875 1.6875 C 1.65625 1.8125 1.640625 1.84375 1.640625 1.890625 C 1.640625 2.109375 1.828125 2.171875 1.921875 2.171875 C 1.984375 2.171875 2.203125 2.140625 2.296875 1.90625 C 2.328125 1.828125 2.375 1.5 2.640625 0.09375 C 2.734375 0.09375 2.796875 0.109375 2.96875 0.109375 C 4.625 0.109375 6.15625 -1.453125 6.15625 -3.015625 C 6.15625 -3.796875 5.765625 -4.390625 5.015625 -4.390625 C 3.578125 -4.390625 2.984375 -2.46875 2.390625 -0.53125 C 1.3125 -0.71875 0.75 -1.28125 0.75 -2 C 0.75 -2.28125 0.984375 -3.375 1.578125 -4.046875 C 1.65625 -4.140625 1.65625 -4.15625 1.65625 -4.1875 C 1.65625 -4.21875 1.640625 -4.28125 1.546875 -4.28125 C 1.265625 -4.28125 0.5 -2.84375 0.5 -1.890625 C 0.5 -0.953125 1.15625 -0.234375 2.21875 0.015625 Z M 3.0625 -0.46875 C 2.984375 -0.46875 2.96875 -0.46875 2.875 -0.484375 C 2.765625 -0.484375 2.75 -0.484375 2.75 -0.515625 C 2.75 -0.53125 2.921875 -1.4375 2.953125 -1.59375 C 3.265625 -2.859375 4.03125 -3.8125 4.921875 -3.8125 C 5.609375 -3.8125 5.875 -3.28125 5.875 -2.796875 C 5.875 -1.671875 4.59375 -0.46875 3.0625 -0.46875 Z M 3.0625 -0.46875 "/>
</g>
<g id="glyph-0-2">
<path d="M 3.9375 -3.78125 C 3.78125 -3.78125 3.640625 -3.78125 3.5 -3.640625 C 3.34375 -3.484375 3.3125 -3.3125 3.3125 -3.25 C 3.3125 -3.015625 3.5 -2.90625 3.6875 -2.90625 C 3.96875 -2.90625 4.25 -3.140625 4.25 -3.53125 C 4.25 -4.03125 3.78125 -4.390625 3.078125 -4.390625 C 1.734375 -4.390625 0.40625 -2.96875 0.40625 -1.5625 C 0.40625 -0.671875 0.984375 0.109375 2.015625 0.109375 C 3.4375 0.109375 4.265625 -0.9375 4.265625 -1.0625 C 4.265625 -1.125 4.21875 -1.1875 4.15625 -1.1875 C 4.109375 -1.1875 4.078125 -1.171875 4.03125 -1.09375 C 3.234375 -0.109375 2.15625 -0.109375 2.03125 -0.109375 C 1.40625 -0.109375 1.140625 -0.59375 1.140625 -1.1875 C 1.140625 -1.59375 1.34375 -2.5625 1.671875 -3.1875 C 1.984375 -3.75 2.53125 -4.171875 3.078125 -4.171875 C 3.421875 -4.171875 3.796875 -4.046875 3.9375 -3.78125 Z M 3.9375 -3.78125 "/>
</g>
<g id="glyph-1-0">
<path d="M 2.59375 -5.578125 C 2.59375 -5.78125 2.453125 -5.90625 2.25 -5.90625 C 2.015625 -5.90625 1.765625 -5.671875 1.765625 -5.4375 C 1.765625 -5.25 1.90625 -5.109375 2.109375 -5.109375 C 2.34375 -5.109375 2.59375 -5.328125 2.59375 -5.578125 Z M 2.71875 -1.28125 C 2.71875 -1.328125 2.6875 -1.390625 2.59375 -1.390625 C 2.5 -1.390625 2.5 -1.34375 2.453125 -1.21875 C 2.25 -0.484375 1.875 -0.125 1.53125 -0.125 C 1.390625 -0.125 1.328125 -0.203125 1.328125 -0.421875 C 1.328125 -0.640625 1.390625 -0.828125 1.46875 -1 C 1.625 -1.4375 1.625 -1.453125 1.75 -1.71875 C 1.890625 -2.109375 2.078125 -2.625 2.171875 -2.875 C 2.234375 -3.03125 2.234375 -3.125 2.234375 -3.203125 C 2.234375 -3.703125 1.828125 -3.953125 1.46875 -3.953125 C 0.609375 -3.953125 0.265625 -2.671875 0.265625 -2.578125 C 0.265625 -2.5 0.328125 -2.46875 0.390625 -2.46875 C 0.484375 -2.46875 0.484375 -2.515625 0.53125 -2.640625 C 0.71875 -3.265625 1.046875 -3.734375 1.453125 -3.734375 C 1.53125 -3.734375 1.65625 -3.703125 1.65625 -3.4375 C 1.65625 -3.21875 1.578125 -2.984375 1.5 -2.78125 L 0.859375 -1.125 C 0.796875 -0.953125 0.734375 -0.8125 0.734375 -0.65625 C 0.734375 -0.234375 1.046875 0.09375 1.515625 0.09375 C 2.375 0.09375 2.71875 -1.1875 2.71875 -1.28125 Z M 2.71875 -1.28125 "/>
</g>
<g id="glyph-1-1">
<path d="M 3.609375 -5.578125 C 3.609375 -5.75 3.484375 -5.90625 3.265625 -5.90625 C 3.03125 -5.90625 2.78125 -5.703125 2.78125 -5.4375 C 2.78125 -5.203125 2.953125 -5.109375 3.125 -5.109375 C 3.390625 -5.109375 3.609375 -5.359375 3.609375 -5.578125 Z M 1.78125 0.40625 C 1.59375 1.171875 1.125 1.609375 0.671875 1.609375 C 0.484375 1.609375 0.46875 1.59375 0.359375 1.5625 C 0.53125 1.5 0.71875 1.3125 0.71875 1.078125 C 0.71875 0.890625 0.5625 0.765625 0.375 0.765625 C 0.125 0.765625 -0.109375 0.96875 -0.109375 1.265625 C -0.109375 1.65625 0.28125 1.828125 0.6875 1.828125 C 1.328125 1.828125 2.1875 1.359375 2.40625 0.46875 L 3.25 -2.828125 C 3.28125 -2.96875 3.28125 -3.109375 3.28125 -3.125 C 3.28125 -3.609375 2.90625 -3.953125 2.40625 -3.953125 C 1.484375 -3.953125 0.953125 -2.671875 0.953125 -2.578125 C 0.953125 -2.5 1.015625 -2.46875 1.078125 -2.46875 C 1.171875 -2.46875 1.1875 -2.5 1.25 -2.65625 C 1.5 -3.234375 1.9375 -3.734375 2.390625 -3.734375 C 2.65625 -3.734375 2.671875 -3.484375 2.671875 -3.3125 C 2.671875 -3.3125 2.671875 -3.140625 2.640625 -3.03125 Z M 1.78125 0.40625 "/>
</g>
<g id="glyph-2-0">
<path d="M 1.96875 -1.953125 C 1.96875 -2.59375 2.203125 -3.640625 3.078125 -3.671875 C 2.96875 -3.5625 2.9375 -3.421875 2.9375 -3.265625 C 2.9375 -2.875 3.25 -2.703125 3.5 -2.703125 C 3.78125 -2.703125 4.0625 -2.890625 4.0625 -3.265625 C 4.0625 -3.734375 3.609375 -4.015625 3.078125 -4.015625 C 2.453125 -4.015625 2.0625 -3.5625 1.875 -3.046875 L 1.859375 -3.046875 L 1.859375 -4.015625 L 0.359375 -3.953125 L 0.359375 -3.515625 C 0.90625 -3.515625 0.96875 -3.515625 0.96875 -3.15625 L 0.96875 -0.4375 L 0.359375 -0.4375 L 0.359375 0 C 1.03125 -0.03125 1.078125 -0.03125 1.515625 -0.03125 C 1.734375 -0.03125 2.25 -0.03125 2.71875 0 L 2.71875 -0.4375 L 1.96875 -0.4375 Z M 1.96875 -1.953125 "/>
</g>
<g id="glyph-3-0">
<path d="M 2.140625 -3.78125 C 2.140625 -3.953125 2.109375 -3.953125 1.9375 -3.953125 C 1.546875 -3.578125 0.9375 -3.578125 0.71875 -3.578125 L 0.71875 -3.34375 C 0.875 -3.34375 1.265625 -3.34375 1.625 -3.515625 L 1.625 -0.5 C 1.625 -0.3125 1.625 -0.234375 1.015625 -0.234375 L 0.75 -0.234375 L 0.75 0 C 1.078125 -0.03125 1.546875 -0.03125 1.875 -0.03125 C 2.21875 -0.03125 2.671875 -0.03125 3 0 L 3 -0.234375 L 2.75 -0.234375 C 2.140625 -0.234375 2.140625 -0.3125 2.140625 -0.5 Z M 2.140625 -3.78125 "/>
</g>
<g id="glyph-3-1">
<path d="M 3.203125 -1.109375 L 2.984375 -1.109375 C 2.96875 -1.03125 2.90625 -0.640625 2.828125 -0.578125 C 2.78125 -0.53125 2.296875 -0.53125 2.21875 -0.53125 L 1.09375 -0.53125 L 1.859375 -1.15625 C 2.0625 -1.3125 2.59375 -1.703125 2.78125 -1.875 C 2.953125 -2.046875 3.203125 -2.359375 3.203125 -2.78125 C 3.203125 -3.53125 2.53125 -3.953125 1.734375 -3.953125 C 0.96875 -3.953125 0.421875 -3.453125 0.421875 -2.890625 C 0.421875 -2.59375 0.6875 -2.546875 0.75 -2.546875 C 0.90625 -2.546875 1.078125 -2.65625 1.078125 -2.875 C 1.078125 -3 1 -3.203125 0.734375 -3.203125 C 0.875 -3.5 1.234375 -3.734375 1.640625 -3.734375 C 2.265625 -3.734375 2.59375 -3.265625 2.59375 -2.78125 C 2.59375 -2.359375 2.328125 -1.921875 1.90625 -1.546875 L 0.5 -0.25 C 0.4375 -0.1875 0.421875 -0.1875 0.421875 0 L 3.015625 0 Z M 3.203125 -1.109375 "/>
</g>
<g id="glyph-4-0">
<path d="M 7.171875 -4.484375 C 7.171875 -4.703125 7.109375 -4.796875 7.03125 -4.796875 C 7 -4.796875 6.90625 -4.75 6.890625 -4.515625 C 6.859375 -3.828125 6.15625 -3.421875 5.515625 -3.421875 C 4.9375 -3.421875 4.4375 -3.734375 3.921875 -4.078125 C 3.390625 -4.4375 2.859375 -4.796875 2.203125 -4.796875 C 1.28125 -4.796875 0.546875 -4.09375 0.546875 -3.1875 C 0.546875 -2.96875 0.625 -2.875 0.6875 -2.875 C 0.78125 -2.875 0.828125 -3.078125 0.828125 -3.109375 C 0.875 -3.9375 1.6875 -4.25 2.203125 -4.25 C 2.78125 -4.25 3.28125 -3.9375 3.796875 -3.59375 C 4.328125 -3.234375 4.875 -2.875 5.515625 -2.875 C 6.4375 -2.875 7.171875 -3.578125 7.171875 -4.484375 Z M 7.171875 -2.171875 C 7.171875 -2.453125 7.0625 -2.46875 7.03125 -2.46875 C 7 -2.46875 6.90625 -2.421875 6.890625 -2.203125 C 6.859375 -1.515625 6.15625 -1.109375 5.515625 -1.109375 C 4.9375 -1.109375 4.4375 -1.421875 3.921875 -1.765625 C 3.390625 -2.125 2.859375 -2.484375 2.203125 -2.484375 C 1.28125 -2.484375 0.546875 -1.78125 0.546875 -0.859375 C 0.546875 -0.640625 0.625 -0.5625 0.6875 -0.5625 C 0.78125 -0.5625 0.828125 -0.75 0.828125 -0.796875 C 0.875 -1.625 1.6875 -1.921875 2.203125 -1.921875 C 2.78125 -1.921875 3.28125 -1.625 3.796875 -1.265625 C 4.328125 -0.921875 4.875 -0.5625 5.515625 -0.5625 C 6.453125 -0.5625 7.171875 -1.296875 7.171875 -2.171875 Z M 7.171875 -2.171875 "/>
</g>
</g>
<clipPath id="clip-0">
<path clip-rule="nonzero" d="M 147 27 L 186.898438 27 L 186.898438 76 L 147 76 Z M 147 27 "/>
</clipPath>
</defs>
<path fill-rule="nonzero" fill="rgb(93.998718%, 93.998718%, 93.998718%)" fill-opacity="1" stroke-width="0.89664" stroke-linecap="butt" stroke-linejoin="miter" stroke="rgb(19.999695%, 19.999695%, 19.999695%)" stroke-opacity="1" stroke-miterlimit="10" d="M -9.922826 26.93014 L 52.439637 26.93014 L 52.439637 46.773454 L -9.922826 46.773454 Z M -9.922826 26.93014 " transform="matrix(0.997069, 0, 0, -0.997069, 15.725775, 51.155899)"/>
<g fill="rgb(0%, 0%, 0%)" fill-opacity="1">
<use xlink:href="#glyph-0-0" x="33.017945" y="17.806927"/>
</g>
<path fill-rule="nonzero" fill="rgb(90.162659%, 93.223572%, 96.75293%)" fill-opacity="1" stroke-width="0.89664" stroke-linecap="butt" stroke-linejoin="miter" stroke="rgb(18.03894%, 43.528748%, 72.941589%)" stroke-opacity="1" stroke-miterlimit="10" d="M 11.338707 -0.000351856 C 11.338707 6.264102 6.261326 11.337565 0.000790199 11.337565 C -6.263664 11.337565 -11.337127 6.264102 -11.337127 -0.000351856 C -11.337127 -6.260888 -6.263664 -11.338269 0.000790199 -11.338269 C 6.261326 -11.338269 11.338707 -6.260888 11.338707 -0.000351856 Z M 11.338707 -0.000351856 " transform="matrix(0.997069, 0, 0, -0.997069, 15.725775, 51.155899)"/>
<g fill="rgb(0%, 0%, 0%)" fill-opacity="1">
<use xlink:href="#glyph-0-1" x="12.476326" y="52.328452"/>
</g>
<path fill-rule="nonzero" fill="rgb(90.162659%, 93.223572%, 96.75293%)" fill-opacity="1" stroke-width="0.89664" stroke-linecap="butt" stroke-linejoin="miter" stroke="rgb(18.03894%, 43.528748%, 72.941589%)" stroke-opacity="1" stroke-miterlimit="10" d="M 53.857856 -0.000351856 C 53.857856 6.264102 48.784393 11.337565 42.519939 11.337565 C 36.259403 11.337565 31.182021 6.264102 31.182021 -0.000351856 C 31.182021 -6.260888 36.259403 -11.338269 42.519939 -11.338269 C 48.784393 -11.338269 53.857856 -6.260888 53.857856 -0.000351856 Z M 53.857856 -0.000351856 " transform="matrix(0.997069, 0, 0, -0.997069, 15.725775, 51.155899)"/>
<g fill="rgb(0%, 0%, 0%)" fill-opacity="1">
<use xlink:href="#glyph-0-1" x="54.871706" y="52.328452"/>
</g>
<path fill="none" stroke-width="0.89664" stroke-linecap="butt" stroke-linejoin="miter" stroke="rgb(19.999695%, 19.999695%, 19.999695%)" stroke-opacity="1" stroke-miterlimit="10" d="M 0.000790199 26.479601 L 0.000790199 11.788105 " transform="matrix(0.997069, 0, 0, -0.997069, 15.725775, 51.155899)"/>
<g fill="rgb(0%, 0%, 0%)" fill-opacity="1">
<use xlink:href="#glyph-1-0" x="10.14817" y="35.027309"/>
</g>
<path fill="none" stroke-width="0.89664" stroke-linecap="butt" stroke-linejoin="miter" stroke="rgb(19.999695%, 19.999695%, 19.999695%)" stroke-opacity="1" stroke-miterlimit="10" d="M 42.519939 26.479601 L 42.519939 11.788105 " transform="matrix(0.997069, 0, 0, -0.997069, 15.725775, 51.155899)"/>
<g fill="rgb(0%, 0%, 0%)" fill-opacity="1">
<use xlink:href="#glyph-1-1" x="60.554004" y="34.157864"/>
</g>
<path fill="none" stroke-width="0.89664" stroke-linecap="butt" stroke-linejoin="miter" stroke="rgb(18.03894%, 43.528748%, 72.941589%)" stroke-opacity="1" stroke-miterlimit="10" d="M 0.000790199 -11.788808 L 0.000790199 -12.921033 C 0.000790199 -13.771181 1.560048 -14.198214 1.560048 -15.048362 C 1.560048 -15.663446 0.800008 -16.192339 0.000790199 -16.748657 C -0.798427 -17.301058 -1.558467 -17.833869 -1.558467 -18.448953 C -1.558467 -19.064037 -0.798427 -19.592931 0.000790199 -20.149249 C 0.800008 -20.705567 1.560048 -21.234461 1.560048 -21.849545 C 1.560048 -22.464629 0.800008 -22.99744 0.000790199 -23.549841 C -0.798427 -24.106159 -1.558467 -24.635052 -1.558467 -25.250136 C -1.558467 -25.869138 -0.798427 -26.398032 0.000790199 -26.95435 C 0.800008 -27.50675 1.560048 -28.035644 1.560048 -28.654646 C 1.560048 -29.26973 0.800008 -29.798624 0.000790199 -30.354942 C -0.798427 -30.907342 -1.558467 -31.440153 -1.558467 -32.055237 C -1.558467 -32.905385 0.000790199 -33.332418 0.000790199 -34.182566 L 0.000790199 -37.297163 " transform="matrix(0.997069, 0, 0, -0.997069, 15.725775, 51.155899)"/>
<g fill="rgb(0%, 0%, 0%)" fill-opacity="1">
<use xlink:href="#glyph-2-0" x="11.474272" y="94.751751"/>
</g>
<g fill="rgb(0%, 0%, 0%)" fill-opacity="1">
<use xlink:href="#glyph-3-0" x="15.838443" y="95.744832"/>
</g>
<path fill="none" stroke-width="0.89664" stroke-linecap="butt" stroke-linejoin="miter" stroke="rgb(18.03894%, 43.528748%, 72.941589%)" stroke-opacity="1" stroke-miterlimit="10" d="M 42.519939 -11.788808 L 42.519939 -12.921033 C 42.519939 -13.771181 44.079196 -14.198214 44.079196 -15.048362 C 44.079196 -15.663446 43.319156 -16.192339 42.519939 -16.748657 C 41.720721 -17.301058 40.960681 -17.833869 40.960681 -18.448953 C 40.960681 -19.064037 41.720721 -19.592931 42.519939 -20.149249 C 43.319156 -20.705567 44.079196 -21.234461 44.079196 -21.849545 C 44.079196 -22.464629 43.319156 -22.99744 42.519939 -23.549841 C 41.720721 -24.106159 40.960681 -24.635052 40.960681 -25.250136 C 40.960681 -25.869138 41.720721 -26.398032 42.519939 -26.95435 C 43.319156 -27.50675 44.079196 -28.035644 44.079196 -28.654646 C 44.079196 -29.26973 43.319156 -29.798624 42.519939 -30.354942 C 41.720721 -30.907342 40.960681 -31.440153 40.960681 -32.055237 C 40.960681 -32.905385 42.519939 -33.332418 42.519939 -34.182566 L 42.519939 -37.297163 " transform="matrix(0.997069, 0, 0, -0.997069, 15.725775, 51.155899)"/>
<g fill="rgb(0%, 0%, 0%)" fill-opacity="1">
<use xlink:href="#glyph-2-0" x="53.869652" y="94.751751"/>
</g>
<g fill="rgb(0%, 0%, 0%)" fill-opacity="1">
<use xlink:href="#glyph-3-1" x="58.232827" y="95.744832"/>
</g>
<g fill="rgb(0%, 0%, 0%)" fill-opacity="1">
<use xlink:href="#glyph-4-0" x="89.586663" y="38.01054"/>
</g>
<path fill-rule="nonzero" fill="rgb(93.998718%, 93.998718%, 93.998718%)" fill-opacity="1" stroke-width="0.89664" stroke-linecap="butt" stroke-linejoin="miter" stroke="rgb(19.999695%, 19.999695%, 19.999695%)" stroke-opacity="1" stroke-miterlimit="10" d="M 103.464182 26.93014 L 123.307496 26.93014 L 123.307496 46.773454 L 103.464182 46.773454 Z M 103.464182 26.93014 " transform="matrix(0.997069, 0, 0, -0.997069, 15.725775, 51.155899)"/>
<g fill="rgb(0%, 0%, 0%)" fill-opacity="1">
<use xlink:href="#glyph-0-2" x="126.629776" y="16.551617"/>
</g>
<path fill-rule="nonzero" fill="rgb(93.998718%, 93.998718%, 93.998718%)" fill-opacity="1" stroke-width="0.89664" stroke-linecap="butt" stroke-linejoin="miter" stroke="rgb(19.999695%, 19.999695%, 19.999695%)" stroke-opacity="1" stroke-miterlimit="10" d="M 145.987249 26.93014 L 165.830563 26.93014 L 165.830563 46.773454 L 145.987249 46.773454 Z M 145.987249 26.93014 " transform="matrix(0.997069, 0, 0, -0.997069, 15.725775, 51.155899)"/>
<g fill="rgb(0%, 0%, 0%)" fill-opacity="1">
<use xlink:href="#glyph-0-2" x="169.025156" y="16.551617"/>
</g>
<path fill-rule="nonzero" fill="rgb(90.162659%, 93.223572%, 96.75293%)" fill-opacity="1" stroke-width="0.89664" stroke-linecap="butt" stroke-linejoin="miter" stroke="rgb(18.03894%, 43.528748%, 72.941589%)" stroke-opacity="1" stroke-miterlimit="10" d="M 124.725715 -0.000351856 C 124.725715 6.264102 119.648334 11.337565 113.387798 11.337565 C 107.123344 11.337565 102.049881 6.264102 102.049881 -0.000351856 C 102.049881 -6.260888 107.123344 -11.338269 113.387798 -11.338269 C 119.648334 -11.338269 124.725715 -6.260888 124.725715 -0.000351856 Z M 124.725715 -0.000351856 " transform="matrix(0.997069, 0, 0, -0.997069, 15.725775, 51.155899)"/>
<g fill="rgb(0%, 0%, 0%)" fill-opacity="1">
<use xlink:href="#glyph-0-1" x="125.530009" y="52.328452"/>
</g>
<path fill-rule="nonzero" fill="rgb(90.162659%, 93.223572%, 96.75293%)" fill-opacity="1" d="M 182.480469 51.15625 C 182.480469 44.910156 177.421875 39.851562 171.175781 39.851562 C 164.933594 39.851562 159.871094 44.910156 159.871094 51.15625 C 159.871094 57.398438 164.933594 62.460938 171.175781 62.460938 C 177.421875 62.460938 182.480469 57.398438 182.480469 51.15625 Z M 182.480469 51.15625 "/>
<g clip-path="url(#clip-0)">
<path fill="none" stroke-width="0.89664" stroke-linecap="butt" stroke-linejoin="miter" stroke="rgb(18.03894%, 43.528748%, 72.941589%)" stroke-opacity="1" stroke-miterlimit="10" d="M 167.244864 -0.000351856 C 167.244864 6.264102 162.171401 11.337565 155.906947 11.337565 C 149.64641 11.337565 144.569029 6.264102 144.569029 -0.000351856 C 144.569029 -6.260888 149.64641 -11.338269 155.906947 -11.338269 C 162.171401 -11.338269 167.244864 -6.260888 167.244864 -0.000351856 Z M 167.244864 -0.000351856 " transform="matrix(0.997069, 0, 0, -0.997069, 15.725775, 51.155899)"/>
</g>
<g fill="rgb(0%, 0%, 0%)" fill-opacity="1">
<use xlink:href="#glyph-0-1" x="167.925389" y="52.328452"/>
</g>
<path fill="none" stroke-width="0.89664" stroke-linecap="butt" stroke-linejoin="miter" stroke="rgb(19.999695%, 19.999695%, 19.999695%)" stroke-opacity="1" stroke-miterlimit="10" d="M 113.387798 26.479601 L 113.387798 11.788105 " transform="matrix(0.997069, 0, 0, -0.997069, 15.725775, 51.155899)"/>
<g fill="rgb(0%, 0%, 0%)" fill-opacity="1">
<use xlink:href="#glyph-1-0" x="123.200855" y="35.027309"/>
</g>
<path fill="none" stroke-width="0.89664" stroke-linecap="butt" stroke-linejoin="miter" stroke="rgb(19.999695%, 19.999695%, 19.999695%)" stroke-opacity="1" stroke-miterlimit="10" d="M 155.906947 26.479601 L 155.906947 11.788105 " transform="matrix(0.997069, 0, 0, -0.997069, 15.725775, 51.155899)"/>
<g fill="rgb(0%, 0%, 0%)" fill-opacity="1">
<use xlink:href="#glyph-1-1" x="173.607686" y="34.157864"/>
</g>
<path fill="none" stroke-width="0.89664" stroke-linecap="butt" stroke-linejoin="miter" stroke="rgb(18.03894%, 43.528748%, 72.941589%)" stroke-opacity="1" stroke-miterlimit="10" d="M 113.387798 -11.788808 L 113.387798 -12.921033 C 113.387798 -13.771181 114.947056 -14.198214 114.947056 -15.048362 C 114.947056 -15.663446 114.187016 -16.192339 113.387798 -16.748657 C 112.588581 -17.301058 111.828541 -17.833869 111.828541 -18.448953 C 111.828541 -19.064037 112.588581 -19.592931 113.387798 -20.149249 C 114.187016 -20.705567 114.947056 -21.234461 114.947056 -21.849545 C 114.947056 -22.464629 114.187016 -22.99744 113.387798 -23.549841 C 112.588581 -24.106159 111.828541 -24.635052 111.828541 -25.250136 C 111.828541 -25.869138 112.588581 -26.398032 113.387798 -26.95435 C 114.187016 -27.50675 114.947056 -28.035644 114.947056 -28.654646 C 114.947056 -29.26973 114.187016 -29.798624 113.387798 -30.354942 C 112.588581 -30.907342 111.828541 -31.440153 111.828541 -32.055237 C 111.828541 -32.905385 113.387798 -33.332418 113.387798 -34.182566 L 113.387798 -37.297163 " transform="matrix(0.997069, 0, 0, -0.997069, 15.725775, 51.155899)"/>
<g fill="rgb(0%, 0%, 0%)" fill-opacity="1">
<use xlink:href="#glyph-2-0" x="124.527954" y="94.751751"/>
</g>
<g fill="rgb(0%, 0%, 0%)" fill-opacity="1">
<use xlink:href="#glyph-3-0" x="128.891129" y="95.744832"/>
</g>
<path fill="none" stroke-width="0.89664" stroke-linecap="butt" stroke-linejoin="miter" stroke="rgb(18.03894%, 43.528748%, 72.941589%)" stroke-opacity="1" stroke-miterlimit="10" d="M 155.906947 -11.788808 L 155.906947 -12.921033 C 155.906947 -13.771181 157.466204 -14.198214 157.466204 -15.048362 C 157.466204 -15.663446 156.706164 -16.192339 155.906947 -16.748657 C 155.107729 -17.301058 154.347689 -17.833869 154.347689 -18.448953 C 154.347689 -19.064037 155.107729 -19.592931 155.906947 -20.149249 C 156.706164 -20.705567 157.466204 -21.234461 157.466204 -21.849545 C 157.466204 -22.464629 156.706164 -22.99744 155.906947 -23.549841 C 155.107729 -24.106159 154.347689 -24.635052 154.347689 -25.250136 C 154.347689 -25.869138 155.107729 -26.398032 155.906947 -26.95435 C 156.706164 -27.50675 157.466204 -28.035644 157.466204 -28.654646 C 157.466204 -29.26973 156.706164 -29.798624 155.906947 -30.354942 C 155.107729 -30.907342 154.347689 -31.440153 154.347689 -32.055237 C 154.347689 -32.905385 155.906947 -33.332418 155.906947 -34.182566 L 155.906947 -37.297163 " transform="matrix(0.997069, 0, 0, -0.997069, 15.725775, 51.155899)"/>
<g fill="rgb(0%, 0%, 0%)" fill-opacity="1">
<use xlink:href="#glyph-2-0" x="166.923334" y="94.751751"/>
</g>
<g fill="rgb(0%, 0%, 0%)" fill-opacity="1">
<use xlink:href="#glyph-3-1" x="171.286509" y="95.744832"/>
</g>
</svg>
