<?xml version="1.0" encoding="UTF-8"?>
<svg xmlns="http://www.w3.org/2000/svg" xmlns:xlink="http://www.w3.org/1999/xlink" width="259.235" height="72.679" viewBox="0 0 259.235 72.679">
<defs>
<g>
<g id="glyph-0-0">
<path d="M 6.90625 -6.046875 C 6.9375 -6.15625 6.9375 -6.171875 6.9375 -6.1875 C 6.9375 -6.203125 6.921875 -6.296875 6.828125 -6.296875 C 6.765625 -6.296875 6.75 -6.265625 6.6875 -6.1875 L 6.140625 -5.59375 C 6.109375 -5.546875 6.0625 -5.515625 6.0625 -5.515625 C 6.046875 -5.515625 6.046875 -5.515625 5.984375 -5.578125 C 5.859375 -5.765625 5.453125 -6.296875 4.515625 -6.296875 C 2.484375 -6.296875 0.453125 -4.3125 0.453125 -2.28125 C 0.453125 -0.828125 1.515625 0.203125 2.953125 0.203125 C 3.875 0.203125 4.609375 -0.28125 4.953125 -0.59375 C 5.765625 -1.328125 5.921875 -2.109375 5.921875 -2.140625 C 5.921875 -2.171875 5.90625 -2.234375 5.796875 -2.234375 C 5.703125 -2.234375 5.6875 -2.1875 5.671875 -2.15625 C 5.234375 -0.71875 3.96875 -0.078125 3.0625 -0.078125 C 2.203125 -0.078125 1.28125 -0.609375 1.28125 -1.953125 C 1.28125 -2.359375 1.421875 -3.765625 2.3125 -4.859375 C 2.859375 -5.5 3.734375 -6.015625 4.578125 -6.015625 C 5.578125 -6.015625 6.109375 -5.25 6.109375 -4.28125 C 6.109375 -3.96875 6.078125 -3.90625 6.078125 -3.84375 C 6.078125 -3.734375 6.1875 -3.734375 6.203125 -3.734375 C 6.328125 -3.734375 6.328125 -3.75 6.375 -3.921875 Z M 6.90625 -6.046875 "/>
</g>
<g id="glyph-0-1">
<path d="M 1.453125 -0.671875 C 1.375 -0.359375 1.359375 -0.28125 0.6875 -0.28125 C 0.515625 -0.28125 0.421875 -0.28125 0.421875 -0.109375 C 0.421875 0 0.515625 0 0.671875 0 L 3.921875 0 C 5.359375 0 6.421875 -1.046875 6.421875 -1.921875 C 6.421875 -2.546875 5.890625 -3.09375 5.015625 -3.1875 C 6.03125 -3.375 6.890625 -4.0625 6.890625 -4.859375 C 6.890625 -5.546875 6.25 -6.09375 5.1875 -6.09375 L 2.140625 -6.09375 C 1.984375 -6.09375 1.875 -6.09375 1.875 -5.9375 C 1.875 -5.8125 1.953125 -5.8125 2.140625 -5.8125 C 2.171875 -5.8125 2.34375 -5.8125 2.484375 -5.796875 C 2.625 -5.78125 2.6875 -5.765625 2.6875 -5.671875 C 2.6875 -5.625 2.6875 -5.578125 2.65625 -5.484375 Z M 2.84375 -3.28125 L 3.390625 -5.46875 C 3.46875 -5.796875 3.484375 -5.8125 3.859375 -5.8125 L 5.0625 -5.8125 C 6 -5.8125 6.078125 -5.109375 6.078125 -4.890625 C 6.078125 -4.09375 5.25 -3.28125 4.234375 -3.28125 Z M 2.421875 -0.28125 C 2.296875 -0.28125 2.28125 -0.28125 2.234375 -0.28125 C 2.15625 -0.296875 2.125 -0.296875 2.125 -0.359375 C 2.125 -0.390625 2.125 -0.40625 2.171875 -0.578125 L 2.78125 -3.0625 L 4.453125 -3.0625 C 5.015625 -3.0625 5.578125 -2.8125 5.578125 -2 C 5.578125 -1.125 4.765625 -0.28125 3.6875 -0.28125 Z M 2.421875 -0.28125 "/>
</g>
<g id="glyph-1-0">
<path d="M 2.984375 -2.609375 C 2.8125 -2.5625 2.703125 -2.421875 2.703125 -2.28125 C 2.703125 -2.125 2.84375 -2.0625 2.921875 -2.0625 C 3 -2.0625 3.265625 -2.109375 3.265625 -2.453125 C 3.265625 -2.90625 2.765625 -3.0625 2.34375 -3.0625 C 1.25 -3.0625 1.0625 -2.265625 1.0625 -2.046875 C 1.0625 -1.796875 1.203125 -1.625 1.296875 -1.546875 C 1.484375 -1.40625 1.609375 -1.375 2.09375 -1.296875 C 2.234375 -1.265625 2.671875 -1.171875 2.671875 -0.828125 C 2.671875 -0.71875 2.609375 -0.453125 2.3125 -0.28125 C 2.046875 -0.125 1.703125 -0.125 1.609375 -0.125 C 1.34375 -0.125 0.9375 -0.1875 0.78125 -0.421875 C 1.015625 -0.4375 1.171875 -0.625 1.171875 -0.8125 C 1.171875 -0.984375 1.046875 -1.0625 0.890625 -1.0625 C 0.6875 -1.0625 0.5 -0.90625 0.5 -0.609375 C 0.5 -0.1875 0.9375 0.0625 1.609375 0.0625 C 2.890625 0.0625 3.125 -0.8125 3.125 -1.078125 C 3.125 -1.71875 2.421875 -1.84375 2.171875 -1.890625 C 2.109375 -1.90625 1.921875 -1.921875 1.890625 -1.9375 C 1.625 -1.984375 1.5 -2.140625 1.5 -2.296875 C 1.5 -2.453125 1.625 -2.640625 1.78125 -2.734375 C 1.96875 -2.84375 2.21875 -2.859375 2.328125 -2.859375 C 2.484375 -2.859375 2.84375 -2.84375 2.984375 -2.609375 Z M 2.984375 -2.609375 "/>
</g>
<g id="glyph-2-0">
<path d="M 1.96875 -3.15625 C 1.96875 -3.296875 1.953125 -3.296875 1.796875 -3.296875 C 1.4375 -2.984375 0.890625 -2.984375 0.796875 -2.984375 L 0.703125 -2.984375 L 0.703125 -2.765625 L 0.796875 -2.765625 C 0.90625 -2.765625 1.234375 -2.78125 1.515625 -2.90625 L 1.515625 -0.421875 C 1.515625 -0.265625 1.515625 -0.21875 0.984375 -0.21875 L 0.75 -0.21875 L 0.75 0 C 1.015625 -0.015625 1.453125 -0.015625 1.75 -0.015625 C 2.03125 -0.015625 2.46875 -0.015625 2.75 0 L 2.75 -0.21875 L 2.5 -0.21875 C 1.96875 -0.21875 1.96875 -0.265625 1.96875 -0.421875 Z M 1.96875 -3.15625 "/>
</g>
<g id="glyph-2-1">
<path d="M 2.921875 -0.953125 L 2.703125 -0.953125 C 2.6875 -0.859375 2.640625 -0.5625 2.5625 -0.5 C 2.53125 -0.46875 2.109375 -0.46875 2.03125 -0.46875 L 1.0625 -0.46875 C 1.390625 -0.71875 1.765625 -1 2.0625 -1.1875 C 2.5 -1.5 2.921875 -1.78125 2.921875 -2.3125 C 2.921875 -2.953125 2.3125 -3.296875 1.609375 -3.296875 C 0.9375 -3.296875 0.453125 -2.90625 0.453125 -2.421875 C 0.453125 -2.171875 0.671875 -2.125 0.734375 -2.125 C 0.875 -2.125 1.03125 -2.21875 1.03125 -2.421875 C 1.03125 -2.59375 0.90625 -2.6875 0.75 -2.703125 C 0.890625 -2.9375 1.171875 -3.078125 1.5 -3.078125 C 1.984375 -3.078125 2.390625 -2.796875 2.390625 -2.3125 C 2.390625 -1.890625 2.09375 -1.578125 1.71875 -1.25 L 0.515625 -0.234375 C 0.453125 -0.1875 0.453125 -0.1875 0.453125 -0.15625 L 0.453125 0 L 2.75 0 Z M 2.921875 -0.953125 "/>
</g>
<g id="glyph-2-2">
<path d="M 1.640625 -1.640625 C 2.09375 -1.640625 2.390625 -1.359375 2.390625 -0.859375 C 2.390625 -0.359375 2.078125 -0.09375 1.640625 -0.09375 C 1.578125 -0.09375 1 -0.09375 0.75 -0.359375 C 0.953125 -0.375 1 -0.53125 1 -0.65625 C 1 -0.84375 0.859375 -0.953125 0.703125 -0.953125 C 0.546875 -0.953125 0.390625 -0.859375 0.390625 -0.640625 C 0.390625 -0.125 0.984375 0.109375 1.65625 0.109375 C 2.46875 0.109375 2.96875 -0.375 2.96875 -0.859375 C 2.96875 -1.265625 2.609375 -1.609375 2.046875 -1.75 C 2.640625 -1.9375 2.796875 -2.3125 2.796875 -2.59375 C 2.796875 -3 2.296875 -3.296875 1.671875 -3.296875 C 1.0625 -3.296875 0.5625 -3.046875 0.5625 -2.59375 C 0.5625 -2.359375 0.765625 -2.296875 0.859375 -2.296875 C 1 -2.296875 1.140625 -2.40625 1.140625 -2.578125 C 1.140625 -2.703125 1.078125 -2.84375 0.890625 -2.875 C 1.109375 -3.09375 1.546875 -3.109375 1.65625 -3.109375 C 2.015625 -3.109375 2.28125 -2.921875 2.28125 -2.59375 C 2.28125 -2.296875 2.078125 -1.859375 1.5625 -1.828125 C 1.421875 -1.8125 1.40625 -1.8125 1.28125 -1.8125 C 1.21875 -1.796875 1.171875 -1.796875 1.171875 -1.71875 C 1.171875 -1.640625 1.21875 -1.640625 1.3125 -1.640625 Z M 1.640625 -1.640625 "/>
</g>
<g id="glyph-2-3">
<path d="M 3.0625 -0.8125 L 3.0625 -1.03125 L 2.4375 -1.03125 L 2.4375 -3.203125 C 2.4375 -3.328125 2.4375 -3.359375 2.296875 -3.359375 C 2.203125 -3.359375 2.203125 -3.34375 2.140625 -3.28125 L 0.3125 -1.03125 L 0.3125 -0.8125 L 1.96875 -0.8125 L 1.96875 -0.421875 C 1.96875 -0.265625 1.96875 -0.21875 1.53125 -0.21875 L 1.359375 -0.21875 L 1.359375 0 C 1.59375 -0.015625 1.90625 -0.015625 2.203125 -0.015625 C 2.484375 -0.015625 2.796875 -0.015625 3.046875 0 L 3.046875 -0.21875 L 2.875 -0.21875 C 2.4375 -0.21875 2.4375 -0.265625 2.4375 -0.421875 L 2.4375 -0.8125 Z M 2 -2.8125 L 2 -1.03125 L 0.546875 -1.03125 Z M 2 -2.8125 "/>
</g>
<g id="glyph-2-4">
<path d="M 0.96875 -2.734375 C 1.234375 -2.671875 1.453125 -2.671875 1.515625 -2.671875 C 1.84375 -2.671875 2.09375 -2.765625 2.21875 -2.828125 C 2.34375 -2.890625 2.671875 -3.109375 2.671875 -3.21875 C 2.671875 -3.28125 2.625 -3.296875 2.609375 -3.296875 C 2.59375 -3.296875 2.59375 -3.296875 2.53125 -3.28125 C 2.34375 -3.203125 2.046875 -3.140625 1.71875 -3.140625 C 1.4375 -3.140625 1.15625 -3.1875 0.890625 -3.28125 C 0.84375 -3.296875 0.828125 -3.296875 0.828125 -3.296875 C 0.75 -3.296875 0.75 -3.234375 0.75 -3.15625 L 0.75 -1.671875 C 0.75 -1.59375 0.75 -1.53125 0.84375 -1.53125 C 0.90625 -1.53125 0.90625 -1.53125 0.953125 -1.59375 C 1.140625 -1.8125 1.40625 -1.921875 1.734375 -1.921875 C 2.03125 -1.921875 2.1875 -1.75 2.25 -1.640625 C 2.375 -1.46875 2.390625 -1.25 2.390625 -1.015625 C 2.390625 -0.8125 2.375 -0.53125 2.171875 -0.34375 C 1.953125 -0.109375 1.671875 -0.09375 1.5625 -0.09375 C 1.25 -0.09375 0.875 -0.234375 0.734375 -0.53125 C 0.9375 -0.546875 1 -0.6875 1 -0.796875 C 1 -0.953125 0.890625 -1.078125 0.734375 -1.078125 C 0.625 -1.078125 0.453125 -1.015625 0.453125 -0.78125 C 0.453125 -0.296875 0.921875 0.109375 1.578125 0.109375 C 2.3125 0.109375 2.921875 -0.390625 2.921875 -1 C 2.921875 -1.5625 2.4375 -2.078125 1.75 -2.078125 C 1.4375 -2.078125 1.1875 -2 0.96875 -1.84375 Z M 0.96875 -2.734375 "/>
</g>
</g>
<clipPath id="clip-0">
<path clip-rule="nonzero" d="M 22 39 L 62 39 L 62 72.359375 L 22 72.359375 Z M 22 39 "/>
</clipPath>
<clipPath id="clip-1">
<path clip-rule="nonzero" d="M 73 39 L 113 39 L 113 72.359375 L 73 72.359375 Z M 73 39 "/>
</clipPath>
<clipPath id="clip-2">
<path clip-rule="nonzero" d="M 124 39 L 164 39 L 164 72.359375 L 124 72.359375 Z M 124 39 "/>
</clipPath>
<clipPath id="clip-3">
<path clip-rule="nonzero" d="M 174 39 L 215 39 L 215 72.359375 L 174 72.359375 Z M 174 39 "/>
</clipPath>
<clipPath id="clip-4">
<path clip-rule="nonzero" d="M 225 39 L 258.285156 39 L 258.285156 72.359375 L 225 72.359375 Z M 225 39 "/>
</clipPath>
</defs>
<path fill="none" stroke-width="0.79701" stroke-linecap="butt" stroke-linejoin="miter" stroke="rgb(19.999695%, 19.999695%, 19.999695%)" stroke-opacity="1" stroke-miterlimit="10" d="M 68.562837 21.260741 L 46.595145 21.260741 " transform="matrix(0.995603, 0, 0, -0.995603, 4.156621, 38.362565)"/>
<path fill-rule="nonzero" fill="rgb(19.999695%, 19.999695%, 19.999695%)" fill-opacity="1" stroke-width="0.79701" stroke-linecap="butt" stroke-linejoin="miter" stroke="rgb(19.999695%, 19.999695%, 19.999695%)" stroke-opacity="1" stroke-miterlimit="10" d="M 2.779012 -0.00064128 C 2.437668 0.0856758 0.93889 0.580037 0.00117251 1.113633 L 0.00117251 -1.114916 C 0.93889 -0.577396 2.437668 -0.0869583 2.779012 -0.00064128 Z M 2.779012 -0.00064128 " transform="matrix(-0.995603, 0, 0, 0.995603, 64.13398, 17.195951)"/>
<path fill="none" stroke-width="0.79701" stroke-linecap="butt" stroke-linejoin="miter" stroke="rgb(19.999695%, 19.999695%, 19.999695%)" stroke-opacity="1" stroke-miterlimit="10" d="M 119.587989 21.260741 L 87.701683 21.260741 " transform="matrix(0.995603, 0, 0, -0.995603, 4.156621, 38.362565)"/>
<path fill-rule="nonzero" fill="rgb(19.999695%, 19.999695%, 19.999695%)" fill-opacity="1" stroke-width="0.79701" stroke-linecap="butt" stroke-linejoin="miter" stroke="rgb(19.999695%, 19.999695%, 19.999695%)" stroke-opacity="1" stroke-miterlimit="10" d="M 2.776885 -0.00064128 C 2.43554 0.0856758 0.936762 0.580037 -0.000954709 1.113633 L -0.000954709 -1.114916 C 0.936762 -0.577396 2.43554 -0.0869583 2.776885 -0.00064128 Z M 2.776885 -0.00064128 " transform="matrix(-0.995603, 0, 0, 0.995603, 109.206081, 17.195951)"/>
<path fill="none" stroke-width="0.79701" stroke-linecap="butt" stroke-linejoin="miter" stroke="rgb(19.999695%, 19.999695%, 19.999695%)" stroke-opacity="1" stroke-miterlimit="10" d="M 170.613141 21.260741 L 138.726835 21.260741 " transform="matrix(0.995603, 0, 0, -0.995603, 4.156621, 38.362565)"/>
<path fill-rule="nonzero" fill="rgb(19.999695%, 19.999695%, 19.999695%)" fill-opacity="1" stroke-width="0.79701" stroke-linecap="butt" stroke-linejoin="miter" stroke="rgb(19.999695%, 19.999695%, 19.999695%)" stroke-opacity="1" stroke-miterlimit="10" d="M 2.776003 -0.00064128 C 2.434658 0.0856758 0.93588 0.580037 -0.00183683 1.113633 L -0.00183683 -1.114916 C 0.93588 -0.577396 2.434658 -0.0869583 2.776003 -0.00064128 Z M 2.776003 -0.00064128 " transform="matrix(-0.995603, 0, 0, 0.995603, 160.005984, 17.195951)"/>
<path fill="none" stroke-width="0.79701" stroke-linecap="butt" stroke-linejoin="miter" stroke="rgb(19.999695%, 19.999695%, 19.999695%)" stroke-opacity="1" stroke-miterlimit="10" d="M 221.63437 21.260741 L 189.748063 21.260741 " transform="matrix(0.995603, 0, 0, -0.995603, 4.156621, 38.362565)"/>
<path fill-rule="nonzero" fill="rgb(19.999695%, 19.999695%, 19.999695%)" fill-opacity="1" stroke-width="0.79701" stroke-linecap="butt" stroke-linejoin="miter" stroke="rgb(19.999695%, 19.999695%, 19.999695%)" stroke-opacity="1" stroke-miterlimit="10" d="M 2.779044 -0.00064128 C 2.4377 0.0856758 0.938922 0.580037 0.00120455 1.113633 L 0.00120455 -1.114916 C 0.938922 -0.577396 2.4377 -0.0869583 2.779044 -0.00064128 Z M 2.779044 -0.00064128 " transform="matrix(-0.995603, 0, 0, 0.995603, 210.805887, 17.195951)"/>
<path fill="none" stroke-width="0.79701" stroke-linecap="butt" stroke-linejoin="miter" stroke="rgb(19.999695%, 19.999695%, 19.999695%)" stroke-opacity="1" stroke-miterlimit="10" d="M 45.178761 -21.258257 L 82.381413 -21.258257 " transform="matrix(0.995603, 0, 0, -0.995603, 4.156621, 38.362565)"/>
<path fill-rule="nonzero" fill="rgb(19.999695%, 19.999695%, 19.999695%)" fill-opacity="1" stroke-width="0.79701" stroke-linecap="butt" stroke-linejoin="miter" stroke="rgb(19.999695%, 19.999695%, 19.999695%)" stroke-opacity="1" stroke-miterlimit="10" d="M 2.777778 0.00186293 C 2.436433 0.08818 0.937655 0.578618 -0.0000620908 1.112214 L -0.0000620908 -1.112412 C 0.937655 -0.578815 2.436433 -0.0883776 2.777778 0.00186293 Z M 2.777778 0.00186293 " transform="matrix(0.995603, 0, 0, -0.995603, 66.218812, 59.529198)"/>
<path fill="none" stroke-width="0.79701" stroke-linecap="butt" stroke-linejoin="miter" stroke="rgb(19.999695%, 19.999695%, 19.999695%)" stroke-opacity="1" stroke-miterlimit="10" d="M 96.203913 -21.258257 L 133.406565 -21.258257 " transform="matrix(0.995603, 0, 0, -0.995603, 4.156621, 38.362565)"/>
<path fill-rule="nonzero" fill="rgb(19.999695%, 19.999695%, 19.999695%)" fill-opacity="1" stroke-width="0.79701" stroke-linecap="butt" stroke-linejoin="miter" stroke="rgb(19.999695%, 19.999695%, 19.999695%)" stroke-opacity="1" stroke-miterlimit="10" d="M 2.77866 0.00186293 C 2.437315 0.08818 0.938537 0.578618 0.000820034 1.112214 L 0.000820034 -1.112412 C 0.938537 -0.578815 2.437315 -0.0883776 2.77866 0.00186293 Z M 2.77866 0.00186293 " transform="matrix(0.995603, 0, 0, -0.995603, 117.018715, 59.529198)"/>
<path fill="none" stroke-width="0.79701" stroke-linecap="butt" stroke-linejoin="miter" stroke="rgb(19.999695%, 19.999695%, 19.999695%)" stroke-opacity="1" stroke-miterlimit="10" d="M 147.225142 -21.258257 L 184.431717 -21.258257 " transform="matrix(0.995603, 0, 0, -0.995603, 4.156621, 38.362565)"/>
<path fill-rule="nonzero" fill="rgb(19.999695%, 19.999695%, 19.999695%)" fill-opacity="1" stroke-width="0.79701" stroke-linecap="butt" stroke-linejoin="miter" stroke="rgb(19.999695%, 19.999695%, 19.999695%)" stroke-opacity="1" stroke-miterlimit="10" d="M 2.775619 0.00186293 C 2.438197 0.08818 0.935496 0.578618 0.00170216 1.112214 L 0.00170216 -1.112412 C 0.935496 -0.578815 2.438197 -0.0883776 2.775619 0.00186293 Z M 2.775619 0.00186293 " transform="matrix(0.995603, 0, 0, -0.995603, 167.818618, 59.529198)"/>
<path fill="none" stroke-width="0.79701" stroke-linecap="butt" stroke-linejoin="miter" stroke="rgb(19.999695%, 19.999695%, 19.999695%)" stroke-opacity="1" stroke-miterlimit="10" d="M 198.250294 -21.258257 L 235.456869 -21.258257 " transform="matrix(0.995603, 0, 0, -0.995603, 4.156621, 38.362565)"/>
<path fill-rule="nonzero" fill="rgb(19.999695%, 19.999695%, 19.999695%)" fill-opacity="1" stroke-width="0.79701" stroke-linecap="butt" stroke-linejoin="miter" stroke="rgb(19.999695%, 19.999695%, 19.999695%)" stroke-opacity="1" stroke-miterlimit="10" d="M 2.776511 0.00186293 C 2.435166 0.08818 0.936388 0.578618 -0.00132922 1.112214 L -0.00132922 -1.112412 C 0.936388 -0.578815 2.435166 -0.0883776 2.776511 0.00186293 Z M 2.776511 0.00186293 " transform="matrix(0.995603, 0, 0, -0.995603, 218.618511, 59.529198)"/>
<path fill="none" stroke-width="0.79701" stroke-linecap="butt" stroke-linejoin="miter" stroke="rgb(19.999695%, 19.999695%, 19.999695%)" stroke-opacity="1" stroke-miterlimit="10" d="M 38.269473 21.260741 L 38.269473 -21.258257 " transform="matrix(0.995603, 0, 0, -0.995603, 4.156621, 38.362565)"/>
<path fill="none" stroke-width="0.79701" stroke-linecap="butt" stroke-linejoin="miter" stroke="rgb(19.999695%, 19.999695%, 19.999695%)" stroke-opacity="1" stroke-miterlimit="10" d="M 89.290701 21.260741 L 89.290701 -21.258257 " transform="matrix(0.995603, 0, 0, -0.995603, 4.156621, 38.362565)"/>
<path fill="none" stroke-width="0.79701" stroke-linecap="butt" stroke-linejoin="miter" stroke="rgb(19.999695%, 19.999695%, 19.999695%)" stroke-opacity="1" stroke-miterlimit="10" d="M 140.315853 21.260741 L 140.315853 -21.258257 " transform="matrix(0.995603, 0, 0, -0.995603, 4.156621, 38.362565)"/>
<path fill="none" stroke-width="0.79701" stroke-linecap="butt" stroke-linejoin="miter" stroke="rgb(19.999695%, 19.999695%, 19.999695%)" stroke-opacity="1" stroke-miterlimit="10" d="M 191.341005 21.260741 L 191.341005 -21.258257 " transform="matrix(0.995603, 0, 0, -0.995603, 4.156621, 38.362565)"/>
<path fill="none" stroke-width="0.79701" stroke-linecap="butt" stroke-linejoin="miter" stroke="rgb(19.999695%, 19.999695%, 19.999695%)" stroke-opacity="1" stroke-miterlimit="10" d="M 242.366158 21.260741 L 242.366158 -21.258257 " transform="matrix(0.995603, 0, 0, -0.995603, 4.156621, 38.362565)"/>
<path fill-rule="nonzero" fill="rgb(41.569519%, 74.508667%, 57.255554%)" fill-opacity="1" stroke-width="0.79701" stroke-linecap="butt" stroke-linejoin="miter" stroke="rgb(19.999695%, 19.999695%, 19.999695%)" stroke-opacity="1" stroke-miterlimit="10" d="M 48.188087 21.260741 L 38.269473 31.18328 L 28.346934 21.260741 L 38.269473 11.338203 Z M 48.188087 21.260741 " transform="matrix(0.995603, 0, 0, -0.995603, 4.156621, 38.362565)"/>
<g fill="rgb(0%, 20.391846%, 30.195618%)" fill-opacity="1">
<use xlink:href="#glyph-0-0" x="38.664212" y="20.245582"/>
</g>
<path fill-rule="nonzero" fill="rgb(80.784607%, 49.412537%, 37.644958%)" fill-opacity="1" stroke-width="0.79701" stroke-linecap="butt" stroke-linejoin="miter" stroke="rgb(19.999695%, 19.999695%, 19.999695%)" stroke-opacity="1" stroke-miterlimit="10" d="M 66.969895 21.260741 L 89.290701 8.372035 L 89.290701 34.149448 Z M 66.969895 21.260741 " transform="matrix(0.995603, 0, 0, -0.995603, 4.156621, 38.362565)"/>
<g fill="rgb(0%, 20.391846%, 30.195618%)" fill-opacity="1">
<use xlink:href="#glyph-0-1" x="81.954014" y="20.245582"/>
</g>
<path fill-rule="nonzero" fill="rgb(80.784607%, 49.412537%, 37.644958%)" fill-opacity="1" stroke-width="0.79701" stroke-linecap="butt" stroke-linejoin="miter" stroke="rgb(19.999695%, 19.999695%, 19.999695%)" stroke-opacity="1" stroke-miterlimit="10" d="M 117.995047 21.260741 L 140.315853 8.372035 L 140.315853 34.149448 Z M 117.995047 21.260741 " transform="matrix(0.995603, 0, 0, -0.995603, 4.156621, 38.362565)"/>
<g fill="rgb(0%, 20.391846%, 30.195618%)" fill-opacity="1">
<use xlink:href="#glyph-0-1" x="132.752653" y="20.245582"/>
</g>
<path fill-rule="nonzero" fill="rgb(80.784607%, 49.412537%, 37.644958%)" fill-opacity="1" stroke-width="0.79701" stroke-linecap="butt" stroke-linejoin="miter" stroke="rgb(19.999695%, 19.999695%, 19.999695%)" stroke-opacity="1" stroke-miterlimit="10" d="M 169.016275 21.260741 L 191.341005 8.372035 L 191.341005 34.149448 Z M 169.016275 21.260741 " transform="matrix(0.995603, 0, 0, -0.995603, 4.156621, 38.362565)"/>
<g fill="rgb(0%, 20.391846%, 30.195618%)" fill-opacity="1">
<use xlink:href="#glyph-0-1" x="183.552287" y="20.245582"/>
</g>
<path fill-rule="nonzero" fill="rgb(80.784607%, 49.412537%, 37.644958%)" fill-opacity="1" stroke-width="0.79701" stroke-linecap="butt" stroke-linejoin="miter" stroke="rgb(19.999695%, 19.999695%, 19.999695%)" stroke-opacity="1" stroke-miterlimit="10" d="M 220.041427 21.260741 L 242.366158 8.372035 L 242.366158 34.149448 Z M 220.041427 21.260741 " transform="matrix(0.995603, 0, 0, -0.995603, 4.156621, 38.362565)"/>
<g fill="rgb(0%, 20.391846%, 30.195618%)" fill-opacity="1">
<use xlink:href="#glyph-0-1" x="234.350926" y="20.245582"/>
</g>
<path fill-rule="nonzero" fill="rgb(100%, 100%, 100%)" fill-opacity="1" d="M 50.722656 59.527344 C 50.722656 54.851562 46.933594 51.0625 42.257812 51.0625 C 37.582031 51.0625 33.789062 54.851562 33.789062 59.527344 C 33.789062 64.207031 37.582031 67.996094 42.257812 67.996094 C 46.933594 67.996094 50.722656 64.207031 50.722656 59.527344 Z M 50.722656 59.527344 "/>
<g clip-path="url(#clip-0)">
<path fill="none" stroke-width="0.79701" stroke-linecap="butt" stroke-linejoin="miter" stroke="rgb(19.999695%, 19.999695%, 19.999695%)" stroke-opacity="1" stroke-miterlimit="10" d="M 46.771703 -21.258257 C 46.771703 -16.561824 42.965905 -12.756027 38.269473 -12.756027 C 33.57304 -12.756027 29.763319 -16.561824 29.763319 -21.258257 C 29.763319 -25.958613 33.57304 -29.764411 38.269473 -29.764411 C 42.965905 -29.764411 46.771703 -25.958613 46.771703 -21.258257 Z M 46.771703 -21.258257 " transform="matrix(0.995603, 0, 0, -0.995603, 4.156621, 38.362565)"/>
</g>
<g fill="rgb(0%, 20.391846%, 30.195618%)" fill-opacity="1">
<use xlink:href="#glyph-1-0" x="38.449162" y="60.527669"/>
</g>
<g fill="rgb(0%, 20.391846%, 30.195618%)" fill-opacity="1">
<use xlink:href="#glyph-2-0" x="42.192628" y="61.519289"/>
</g>
<path fill-rule="nonzero" fill="rgb(100%, 100%, 100%)" fill-opacity="1" d="M 101.523438 59.527344 C 101.523438 54.851562 97.734375 51.0625 93.054688 51.0625 C 88.378906 51.0625 84.589844 54.851562 84.589844 59.527344 C 84.589844 64.207031 88.378906 67.996094 93.054688 67.996094 C 97.734375 67.996094 101.523438 64.207031 101.523438 59.527344 Z M 101.523438 59.527344 "/>
<g clip-path="url(#clip-1)">
<path fill="none" stroke-width="0.79701" stroke-linecap="butt" stroke-linejoin="miter" stroke="rgb(19.999695%, 19.999695%, 19.999695%)" stroke-opacity="1" stroke-miterlimit="10" d="M 97.796855 -21.258257 C 97.796855 -16.561824 93.991057 -12.756027 89.290701 -12.756027 C 84.594269 -12.756027 80.788471 -16.561824 80.788471 -21.258257 C 80.788471 -25.958613 84.594269 -29.764411 89.290701 -29.764411 C 93.991057 -29.764411 97.796855 -25.958613 97.796855 -21.258257 Z M 97.796855 -21.258257 " transform="matrix(0.995603, 0, 0, -0.995603, 4.156621, 38.362565)"/>
</g>
<g fill="rgb(0%, 20.391846%, 30.195618%)" fill-opacity="1">
<use xlink:href="#glyph-1-0" x="89.2478" y="60.527669"/>
</g>
<g fill="rgb(0%, 20.391846%, 30.195618%)" fill-opacity="1">
<use xlink:href="#glyph-2-1" x="92.991266" y="61.519289"/>
</g>
<path fill-rule="nonzero" fill="rgb(100%, 100%, 100%)" fill-opacity="1" d="M 152.324219 59.527344 C 152.324219 54.851562 148.53125 51.0625 143.855469 51.0625 C 139.179688 51.0625 135.390625 54.851562 135.390625 59.527344 C 135.390625 64.207031 139.179688 67.996094 143.855469 67.996094 C 148.53125 67.996094 152.324219 64.207031 152.324219 59.527344 Z M 152.324219 59.527344 "/>
<g clip-path="url(#clip-2)">
<path fill="none" stroke-width="0.79701" stroke-linecap="butt" stroke-linejoin="miter" stroke="rgb(19.999695%, 19.999695%, 19.999695%)" stroke-opacity="1" stroke-miterlimit="10" d="M 148.822007 -21.258257 C 148.822007 -16.561824 145.012286 -12.756027 140.315853 -12.756027 C 135.619421 -12.756027 131.813623 -16.561824 131.813623 -21.258257 C 131.813623 -25.958613 135.619421 -29.764411 140.315853 -29.764411 C 145.012286 -29.764411 148.822007 -25.958613 148.822007 -21.258257 Z M 148.822007 -21.258257 " transform="matrix(0.995603, 0, 0, -0.995603, 4.156621, 38.362565)"/>
</g>
<g fill="rgb(0%, 20.391846%, 30.195618%)" fill-opacity="1">
<use xlink:href="#glyph-1-0" x="140.047434" y="60.527669"/>
</g>
<g fill="rgb(0%, 20.391846%, 30.195618%)" fill-opacity="1">
<use xlink:href="#glyph-2-2" x="143.790901" y="61.519289"/>
</g>
<path fill-rule="nonzero" fill="rgb(100%, 100%, 100%)" fill-opacity="1" d="M 203.121094 59.527344 C 203.121094 54.851562 199.332031 51.0625 194.65625 51.0625 C 189.980469 51.0625 186.191406 54.851562 186.191406 59.527344 C 186.191406 64.207031 189.980469 67.996094 194.65625 67.996094 C 199.332031 67.996094 203.121094 64.207031 203.121094 59.527344 Z M 203.121094 59.527344 "/>
<g clip-path="url(#clip-3)">
<path fill="none" stroke-width="0.79701" stroke-linecap="butt" stroke-linejoin="miter" stroke="rgb(19.999695%, 19.999695%, 19.999695%)" stroke-opacity="1" stroke-miterlimit="10" d="M 199.843236 -21.258257 C 199.843236 -16.561824 196.037438 -12.756027 191.341005 -12.756027 C 186.644573 -12.756027 182.838775 -16.561824 182.838775 -21.258257 C 182.838775 -25.958613 186.644573 -29.764411 191.341005 -29.764411 C 196.037438 -29.764411 199.843236 -25.958613 199.843236 -21.258257 Z M 199.843236 -21.258257 " transform="matrix(0.995603, 0, 0, -0.995603, 4.156621, 38.362565)"/>
</g>
<g fill="rgb(0%, 20.391846%, 30.195618%)" fill-opacity="1">
<use xlink:href="#glyph-1-0" x="190.846073" y="60.527669"/>
</g>
<g fill="rgb(0%, 20.391846%, 30.195618%)" fill-opacity="1">
<use xlink:href="#glyph-2-3" x="194.590535" y="61.519289"/>
</g>
<path fill-rule="nonzero" fill="rgb(100%, 100%, 100%)" fill-opacity="1" d="M 253.921875 59.527344 C 253.921875 54.851562 250.132812 51.0625 245.457031 51.0625 C 240.78125 51.0625 236.988281 54.851562 236.988281 59.527344 C 236.988281 64.207031 240.78125 67.996094 245.457031 67.996094 C 250.132812 67.996094 253.921875 64.207031 253.921875 59.527344 Z M 253.921875 59.527344 "/>
<g clip-path="url(#clip-4)">
<path fill="none" stroke-width="0.79701" stroke-linecap="butt" stroke-linejoin="miter" stroke="rgb(19.999695%, 19.999695%, 19.999695%)" stroke-opacity="1" stroke-miterlimit="10" d="M 250.868388 -21.258257 C 250.868388 -16.561824 247.06259 -12.756027 242.366158 -12.756027 C 237.669725 -12.756027 233.860004 -16.561824 233.860004 -21.258257 C 233.860004 -25.958613 237.669725 -29.764411 242.366158 -29.764411 C 247.06259 -29.764411 250.868388 -25.958613 250.868388 -21.258257 Z M 250.868388 -21.258257 " transform="matrix(0.995603, 0, 0, -0.995603, 4.156621, 38.362565)"/>
</g>
<g fill="rgb(0%, 20.391846%, 30.195618%)" fill-opacity="1">
<use xlink:href="#glyph-1-0" x="241.645707" y="60.527669"/>
</g>
<g fill="rgb(0%, 20.391846%, 30.195618%)" fill-opacity="1">
<use xlink:href="#glyph-2-4" x="245.389173" y="61.519289"/>
</g>
</svg>
